<?xml version="1.0" encoding="utf-8"?>
<!-- Generator: Adobe Illustrator 16.0.4, SVG Export Plug-In . SVG Version: 6.00 Build 0)  -->
<!DOCTYPE svg PUBLIC "-//W3C//DTD SVG 1.1//EN" "http://www.w3.org/Graphics/SVG/1.1/DTD/svg11.dtd">
<svg version="1.1" id="Layer_1" xmlns="http://www.w3.org/2000/svg" xmlns:xlink="http://www.w3.org/1999/xlink" x="0px" y="0px"
	 width="800px" height="613.469px" viewBox="0 65.108 800 613.469" enable-background="new 0 65.108 800 613.469"
	 xml:space="preserve">
<g id="Background" display="none">
	<rect fill="#7C5B43" width="800" height="800"/>
	<circle fill="#9E7457" cx="392.5" cy="426.5" r="184.5"/>
	<circle fill="none" stroke="#9E7457" stroke-width="7" stroke-miterlimit="10" cx="392.5" cy="426.5" r="202.5"/>
	<g>
		
			<circle display="inline" fill="none" stroke="#9E7457" stroke-width="4" stroke-linecap="round" stroke-miterlimit="10" stroke-dasharray="7.9626,7.9626" cx="392.5" cy="426.5" r="220.5"/>
	</g>
	<g>
		
			<circle display="inline" fill="none" stroke="#9E7457" stroke-width="2" stroke-linecap="round" stroke-miterlimit="10" stroke-dasharray="7.9894,7.9894" cx="392.5" cy="426.5" r="236.5"/>
	</g>
	<g>
		
			<circle display="inline" fill="none" stroke="#9E7457" stroke-linecap="round" stroke-miterlimit="10" stroke-dasharray="11.948,11.948" cx="392.5" cy="426.5" r="251"/>
	</g>
	<path display="inline" fill="#E9ECED" d="M237,281.643c-0.035-18.855-15.328-34.129-34.191-34.129c-1.596,0-3.164,0.118-4.701,0.33
		c-8.564-10.47-21.583-17.154-36.163-17.154c-18.714,0-34.85,11.013-42.301,26.907c-0.628-0.044-1.26-0.075-1.899-0.075
		c-9.649,0-18.101,5.121-22.788,12.793c-1.359-0.449-2.807-0.7-4.316-0.7c-7.011,0-12.786,5.248-13.64,12.029L237,281.643
		L237,281.643z"/>
	<path display="inline" fill="#E9ECED" d="M202.985,120.427c0.96-1.938,1.515-4.114,1.515-6.423c0-8.008-6.492-14.5-14.5-14.5
		c-0.012,0-0.023,0.002-0.035,0.002C187.402,86.397,175.859,76.504,162,76.504c-3.568,0-6.981,0.662-10.129,1.859
		C146.088,66.602,133.992,58.504,120,58.504c-16.064,0-29.63,10.674-34.009,25.314c-4.048-1.495-8.423-2.314-12.991-2.314
		c-20.71,0-37.5,16.79-37.5,37.5c0,0.478,0.018,0.95,0.036,1.423H202.985z"/>
	<path display="inline" fill="#E9ECED" d="M708.985,716.428c0.96-1.938,1.515-4.113,1.515-6.424c0-8.008-6.492-14.5-14.5-14.5
		c-0.012,0-0.023,0.002-0.035,0.002c-2.562-13.107-14.104-23.002-27.965-23.002c-3.568,0-6.98,0.662-10.129,1.859
		c-5.783-11.763-17.879-19.859-31.871-19.859c-16.064,0-29.63,10.674-34.01,25.314c-4.047-1.496-8.423-2.314-12.99-2.314
		c-20.711,0-37.5,16.789-37.5,37.5c0,0.479,0.018,0.95,0.036,1.424H708.985z"/>
	<path display="inline" fill="#E9ECED" d="M745.998,165.548c-0.042-22.608-18.38-40.923-40.998-40.923
		c-1.914,0-3.794,0.142-5.638,0.396c-10.271-12.553-25.879-20.569-43.362-20.569c-22.44,0-41.788,13.205-50.723,32.264
		c-0.753-0.053-1.512-0.09-2.277-0.09c-11.569,0-21.704,6.141-27.324,15.34c-1.63-0.539-3.366-0.84-5.176-0.84
		c-8.407,0-15.332,6.293-16.355,14.423L745.998,165.548L745.998,165.548z"/>
	<path display="inline" fill="#E9ECED" d="M260.996,702.229c-0.042-22.371-18.188-40.495-40.57-40.495
		c-1.894,0-3.754,0.14-5.579,0.392c-10.163-12.423-25.609-20.354-42.91-20.354c-22.206,0-41.352,13.066-50.193,31.927
		c-0.745-0.053-1.495-0.089-2.253-0.089c-11.449,0-21.478,6.076-27.039,15.18c-1.613-0.533-3.331-0.831-5.122-0.831
		c-8.319,0-15.172,6.228-16.185,14.272h189.851V702.229z"/>
	<path display="inline" fill="#E9ECED" d="M553.878,352.923h134.255c-2.262-3.557-6.229-5.923-10.756-5.923
		c-2.152,0-4.178,0.539-5.956,1.48c-2.679-11.173-12.728-19.48-24.722-19.48c-1.071,0-2.125,0.074-3.162,0.203
		C636.779,321.134,626.634,316,615.285,316c-4.918,0-9.606,0.971-13.896,2.72c-3.239-4.662-8.627-7.72-14.733-7.72
		c-9.907,0-17.938,8.032-17.938,17.939c0,0.797,0.07,1.577,0.171,2.347C560.498,335.091,554.521,343.275,553.878,352.923z"/>
</g>
<g id="Objects">
	<g>
		<path fill="#E9ECED" d="M800,463.071l-186.186,2.111l-38.397-90.646l-80.497,11.567l-54.099,234.491
			c0,0,23.808,18.928,57.834,18.928s94.893-13.303,94.893-13.303L800,634.47V463.071z"/>
		<polygon fill="#BAC0C4" points="500.932,416.281 528.567,433.26 490.256,581.507 		"/>
		<path fill="#333333" d="M491.272,602.931C490.52,617.985,478.093,630,463.02,630H298.577c-15.047,0-27.46-11.973-28.249-26.999
			L249.653,209h261.306L491.272,602.931z"/>
		<rect x="232" y="179" fill="#E9ECED" width="297" height="30"/>
		<path fill="#E9ECED" d="M504,179H257v-26.862C257,139.071,267.344,128,280.411,128h199.791C493.269,128,504,139.071,504,152.138
			V179z"/>
		<rect x="257" y="166" fill="#BAC0C4" width="247" height="13"/>
		<path fill="#E9ECED" d="M274,366.764c0,10.072-8.165,18.236-18.236,18.236h-17.527C228.165,385,220,376.835,220,366.764v-26.527
			c0-10.072,8.165-18.236,18.236-18.236h17.527c10.072,0,18.236,8.165,18.236,18.236L274,366.764L274,366.764z"/>
		<path fill="#E9ECED" d="M274,444.764c0,10.071-8.165,18.236-18.236,18.236h-17.527C228.165,463,220,454.835,220,444.764v-26.526
			c0-10.071,8.165-18.236,18.236-18.236h17.527c10.072,0,18.236,8.165,18.236,18.236L274,444.764L274,444.764z"/>
		<path fill="#E9ECED" d="M272,514.764c0,10.071-8.165,18.236-18.236,18.236h-9.527C234.165,533,226,524.835,226,514.764v-18.526
			c0-10.071,8.165-18.236,18.236-18.236h9.527c10.072,0,18.236,8.165,18.236,18.236L272,514.764L272,514.764z"/>
		<path fill="#E9ECED" d="M282,577.462c0,9.687-7.852,17.538-17.538,17.538h-8.924c-9.686,0-17.538-7.854-17.538-17.538v-17.924
			c0-9.687,7.852-17.538,17.538-17.538h8.924c9.686,0,17.538,7.853,17.538,17.538V577.462z"/>
		<path fill="#E9ECED" d="M504.965,418.7l-45.625-27.258c-4.433-2.66-7.34-7.452-7.34-12.622v-32.5
			c0-5.19,2.791-10.037,7.112-12.912c4.32-2.875,9.892-3.398,14.679-1.393l101.577,42.521L504.965,418.7z"/>
		<polygon fill="#141414" points="509.959,229 250.495,229 249.443,209 511.273,209 		"/>
		<g display="none">
			<g display="inline">
				
					<text transform="matrix(1 -0.1642 0 1 296.9868 352.9316)" fill="#736357" font-family="'BreeSerif-Regular'" font-size="46.2447">COFFEE?</text>
			</g>
			
				<text transform="matrix(1 0 0 1 283.1978 403.543)" display="inline" fill="#4C4C4C" font-family="'Cookie-Regular'" font-size="65.8763">Push me</text>
			
				<text transform="matrix(1 0 0 1 343.9434 454.501)" display="inline" fill="#4C4C4C" font-family="'BebasNeueBold'" font-size="43.0481">FOR A</text>
			<g display="inline">
				<g>
					<path fill="#4C4C4C" d="M302.906,467.534c4.75,1.137,9.52,2.167,14.305,3.09c7.312,1.397,10.555,4.735,9.684,10.388
						c-0.487,3.104-2.482,5.223-6.044,6.273c2.016,0.868,3.518,2.062,4.511,3.603c0.991,1.541,1.334,3.391,1.004,5.55
						c-0.498,3.275-2.087,5.599-4.812,6.92c-2.722,1.32-6.457,1.572-11.137,0.667c-5.258-1.021-10.499-2.156-15.719-3.409
						c0.323-1.347,0.646-2.691,0.969-4.037c0.618,0.096,1.236,0.189,1.854,0.282c1.089,0.149,1.73-0.194,1.921-1.027
						c1.779-7.742,3.558-15.483,5.337-23.226c-0.963-0.274-1.925-0.554-2.886-0.835C302.23,470.358,302.568,468.946,302.906,467.534
						z M311.007,474.185c-0.635,3.026-1.27,6.053-1.905,9.078c1.307,0.274,2.612,0.54,3.921,0.8
						c2.191,0.433,3.894,0.305,5.091-0.361c1.196-0.667,1.929-1.778,2.204-3.325c0.274-1.548-0.044-2.731-0.946-3.556
						c-0.903-0.826-2.298-1.415-4.189-1.787C313.789,474.759,312.397,474.476,311.007,474.185z M308.166,487.728
						c-0.733,3.494-1.466,6.989-2.199,10.483c1.731,0.363,3.465,0.714,5.201,1.051c4.809,0.931,7.529-0.462,8.139-4.025
						c0.292-1.684-0.076-3.072-1.088-4.174c-1.013-1.101-2.588-1.848-4.738-2.264C311.707,488.456,309.935,488.099,308.166,487.728z
						"/>
					<path fill="#4C4C4C" d="M328.382,507.046c0.195-1.37,0.392-2.74,0.586-4.11c0.622,0.037,1.243,0.072,1.864,0.106
						c1.094,0.047,1.697-0.357,1.809-1.204c1.046-7.875,2.092-15.749,3.138-23.624c-0.98-0.182-1.96-0.368-2.939-0.56
						c0.204-1.438,0.408-2.875,0.612-4.312c4.661,0.661,9.333,1.224,14.012,1.685c3.977,0.391,6.965,1.355,9.006,2.974
						c2.038,1.616,2.979,4.082,2.776,7.425c-0.142,2.318-0.887,4.191-2.262,5.607s-2.983,2.396-4.812,2.937
						c1.27,0.547,2.227,1.662,2.878,3.354c1.127,2.769,2.286,5.53,3.475,8.289c1.064,0.098,2.13,0.189,3.195,0.278
						c-0.072,1.45-0.146,2.9-0.22,4.352c-4.682-0.237-9.361-0.564-14.033-0.981c0.123-1.379,0.246-2.757,0.369-4.135
						c0.547-0.003,1.094-0.007,1.641-0.012c0.869-0.029,1.323-0.303,1.365-0.812c0.018-0.204-0.04-0.448-0.166-0.732
						c-0.734-1.774-1.458-3.552-2.169-5.329c-0.328-0.888-0.72-1.532-1.18-1.936c-0.46-0.402-1.145-0.646-2.054-0.737
						c-1.657-0.164-3.313-0.341-4.969-0.527c-0.335,2.953-0.67,5.907-1.005,8.861c1.207,0.188,2.414,0.369,3.622,0.546
						c-0.148,1.443-0.298,2.89-0.447,4.334C337.77,508.292,333.071,507.715,328.382,507.046z M340.854,490.198
						c1.562,0.177,3.122,0.343,4.685,0.499c4.426,0.437,6.79-1.279,7.083-5.022c0.171-2.146-0.288-3.587-1.367-4.33
						c-1.081-0.744-2.869-1.227-5.373-1.48c-1.27-0.129-2.539-0.267-3.807-0.41C341.667,483.035,341.26,486.616,340.854,490.198z"/>
					<path fill="#4C4C4C" d="M391.034,510.538c-9.009,0.272-18.026,0.213-27.032-0.181c0.06-1.384,0.121-2.767,0.181-4.147
						c0.621-0.024,1.241-0.05,1.861-0.077c1.091-0.061,1.651-0.521,1.679-1.375c0.271-7.938,0.541-15.879,0.812-23.816
						c-0.992-0.086-1.982-0.176-2.974-0.271c0.062-1.45,0.125-2.901,0.188-4.353c7.874,0.339,15.756,0.396,23.633,0.172
						c0.081,2.835,0.161,5.669,0.242,8.504c-1.796,0.171-3.594,0.327-5.394,0.47c-0.01-0.684-0.018-1.367-0.026-2.05
						c-0.007-0.58-0.102-0.989-0.278-1.227c-0.179-0.237-0.599-0.354-1.262-0.348c-2.586,0.021-5.173,0.012-7.759-0.026
						c-0.044,2.921-0.088,5.842-0.132,8.763c4.142,0.062,8.283,0.05,12.425-0.037c0.037,1.743,0.072,3.485,0.108,5.228
						c-4.204,0.089-8.408,0.102-12.612,0.037c-0.049,3.194-0.097,6.39-0.145,9.582c3.011,0.046,6.021,0.054,9.032,0.022
						c0.673-0.007,1.101-0.142,1.285-0.398c0.183-0.26,0.27-0.679,0.261-1.26c-0.012-0.854-0.024-1.708-0.037-2.562
						c1.887,0.093,3.775,0.17,5.666,0.23C390.85,504.459,390.942,507.499,391.034,510.538z"/>
					<path fill="#4C4C4C" d="M396.907,504.566c2.629-8.095,5.058-16.217,7.284-24.359c-1.104-0.022-2.206-0.051-3.31-0.085
						c-0.086-1.381-0.173-2.762-0.259-4.145c3.934-0.244,7.864-0.562,11.789-0.947c4.463,9.466,9.232,18.845,14.31,28.123
						c0.02-0.003,0.037-0.005,0.058-0.009c1.066-0.088,2.135-0.181,3.203-0.277c0.2,1.438,0.401,2.876,0.604,4.313
						c-4.859,0.681-9.729,1.263-14.605,1.744c-0.138-1.377-0.272-2.754-0.409-4.131c0.705-0.121,1.409-0.244,2.112-0.37
						c0.629-0.135,1.043-0.316,1.244-0.545c0.202-0.229,0.18-0.604-0.064-1.128c-0.505-1.01-1.007-2.021-1.505-3.034
						c-4.312,0.455-8.632,0.831-12.953,1.129c-0.451,1.538-0.91,3.075-1.375,4.611c1.126-0.021,2.253-0.047,3.379-0.078
						c0.105,1.448,0.213,2.896,0.319,4.345c-4.374,0.321-8.753,0.563-13.134,0.728c-0.051-1.383-0.103-2.767-0.154-4.148
						c0.616-0.074,1.232-0.148,1.85-0.227C396.073,505.974,396.614,505.47,396.907,504.566z M409.207,481.093
						c-1.2,4.992-2.472,9.979-3.814,14.957c3.391-0.246,6.776-0.541,10.16-0.885c-2.13-4.678-4.191-9.373-6.188-14.086
						C409.312,481.084,409.26,481.088,409.207,481.093z"/>
					<path fill="#4C4C4C" d="M435.252,500.431c-1.209-7.765-2.419-15.529-3.628-23.295c-0.993,0.104-1.985,0.201-2.979,0.295
						c-0.211-1.438-0.422-2.874-0.632-4.311c4.097-0.602,8.184-1.278,12.26-2.033c0.252,1.36,0.504,2.721,0.756,4.081
						c-0.559,0.156-1.116,0.311-1.677,0.463c-0.979,0.28-1.387,0.906-1.216,1.882c0.648,3.702,1.298,7.403,1.946,11.105
						c2.919-4.812,5.697-9.66,8.335-14.537c-0.972,0.149-1.943,0.295-2.915,0.437c-0.284-1.424-0.566-2.849-0.852-4.271
						c3.967-0.79,7.923-1.653,11.865-2.591c0.319,1.347,0.641,2.692,0.959,4.039c-0.551,0.184-1.103,0.365-1.653,0.548
						c-0.635,0.217-1.209,0.84-1.736,1.868c-1.785,3.45-3.639,6.887-5.562,10.309c4.116,4.239,8.362,8.407,12.735,12.499
						c0.985-0.176,1.972-0.354,2.955-0.539c0.339,1.412,0.678,2.824,1.018,4.236c-4.757,1.142-9.528,2.187-14.316,3.135
						c-0.269-1.357-0.537-2.715-0.806-4.072c0.562-0.164,1.126-0.329,1.688-0.495c0.727-0.218,1.04-0.562,0.942-1.029
						c-0.041-0.201-0.188-0.449-0.441-0.747c-2.407-2.487-4.771-4.998-7.095-7.531c-1.244,2.079-2.516,4.151-3.812,6.217
						c0.274,1.565,0.549,3.13,0.822,4.695c1.065-0.135,2.13-0.274,3.194-0.419c0.264,1.428,0.526,2.855,0.79,4.284
						c-4.496,0.829-9.005,1.572-13.522,2.231c-0.2-1.369-0.398-2.737-0.6-4.107c0.605-0.141,1.213-0.281,1.818-0.426
						c0.549-0.151,0.936-0.357,1.16-0.617C435.279,501.473,435.347,501.038,435.252,500.431z"/>
				</g>
			</g>
			
				<text transform="matrix(1 0 0 1 323.54 289.1562)" display="inline" fill="#4C4C4C" font-family="'BreeSerif-Regular'" font-size="37.8551">Need</text>
		</g>
		<g display="none">
			<g display="inline">
				
					<text transform="matrix(1 -0.1642 0 1 294.9873 350.9321)" fill="#C7B299" font-family="'BreeSerif-Regular'" font-size="46.2447">COFFEE?</text>
			</g>
			
				<text transform="matrix(1 0 0 1 282 401.4971)" display="inline" fill="#8C8C8C" font-family="'Cookie-Regular'" font-size="65.8763">Push me</text>
			
				<text transform="matrix(1 0 0 1 341.9434 452.501)" display="inline" fill="#8C8C8C" font-family="'BebasNeueBold'" font-size="43.0481">FOR A</text>
			<g display="inline">
				<g>
					<path fill="#8C8C8C" d="M300.906,465.534c4.75,1.137,9.52,2.167,14.305,3.09c7.312,1.396,10.555,4.735,9.684,10.388
						c-0.488,3.104-2.482,5.222-6.044,6.273c2.016,0.868,3.518,2.062,4.511,3.603c0.991,1.541,1.334,3.391,1.004,5.55
						c-0.498,3.275-2.087,5.599-4.812,6.92c-2.722,1.32-6.457,1.572-11.137,0.667c-5.258-1.021-10.499-2.156-15.719-3.409
						c0.323-1.347,0.646-2.691,0.969-4.037c0.618,0.096,1.236,0.189,1.854,0.282c1.09,0.149,1.73-0.194,1.921-1.027
						c1.779-7.742,3.558-15.483,5.337-23.226c-0.963-0.274-1.925-0.554-2.886-0.835C300.23,468.358,300.568,466.946,300.906,465.534
						z M309.007,472.185c-0.635,3.026-1.27,6.053-1.905,9.078c1.307,0.274,2.612,0.54,3.921,0.8
						c2.191,0.433,3.894,0.305,5.091-0.361c1.197-0.667,1.929-1.777,2.204-3.325c0.274-1.548-0.044-2.731-0.946-3.556
						c-0.904-0.826-2.298-1.415-4.189-1.787C311.789,472.759,310.397,472.476,309.007,472.185z M306.166,485.728
						c-0.733,3.494-1.466,6.989-2.199,10.483c1.731,0.363,3.465,0.714,5.201,1.051c4.809,0.931,7.529-0.462,8.139-4.025
						c0.292-1.684-0.076-3.072-1.088-4.174c-1.013-1.101-2.588-1.848-4.738-2.264C309.707,486.456,307.935,486.099,306.166,485.728z
						"/>
					<path fill="#8C8C8C" d="M326.382,505.046c0.195-1.37,0.392-2.74,0.586-4.11c0.622,0.037,1.243,0.072,1.864,0.106
						c1.094,0.047,1.697-0.357,1.809-1.204c1.046-7.875,2.092-15.749,3.138-23.624c-0.98-0.182-1.96-0.368-2.939-0.56
						c0.204-1.438,0.408-2.875,0.612-4.312c4.661,0.661,9.333,1.224,14.012,1.685c3.977,0.391,6.965,1.355,9.006,2.974
						c2.038,1.616,2.979,4.081,2.776,7.425c-0.142,2.318-0.887,4.191-2.262,5.607s-2.982,2.396-4.812,2.937
						c1.27,0.547,2.226,1.661,2.878,3.354c1.127,2.769,2.286,5.53,3.475,8.289c1.064,0.098,2.13,0.189,3.195,0.278
						c-0.072,1.45-0.146,2.9-0.22,4.352c-4.682-0.237-9.361-0.564-14.033-0.981c0.123-1.379,0.246-2.757,0.369-4.135
						c0.547-0.003,1.094-0.007,1.641-0.012c0.869-0.029,1.324-0.303,1.365-0.812c0.018-0.204-0.04-0.448-0.166-0.732
						c-0.734-1.774-1.458-3.552-2.169-5.329c-0.329-0.888-0.72-1.532-1.18-1.936c-0.459-0.402-1.145-0.646-2.054-0.737
						c-1.657-0.164-3.313-0.341-4.969-0.527c-0.335,2.953-0.67,5.907-1.005,8.861c1.207,0.188,2.414,0.369,3.622,0.546
						c-0.148,1.443-0.298,2.89-0.447,4.334C335.77,506.292,331.071,505.715,326.382,505.046z M338.854,488.198
						c1.562,0.177,3.122,0.343,4.685,0.499c4.426,0.437,6.79-1.279,7.083-5.022c0.171-2.146-0.288-3.587-1.367-4.33
						c-1.08-0.744-2.869-1.227-5.373-1.48c-1.27-0.129-2.539-0.267-3.807-0.41C339.667,481.035,339.26,484.616,338.854,488.198z"/>
					<path fill="#8C8C8C" d="M389.034,508.538c-9.009,0.272-18.026,0.213-27.032-0.181c0.06-1.384,0.121-2.767,0.181-4.147
						c0.621-0.024,1.241-0.05,1.861-0.077c1.091-0.061,1.651-0.521,1.679-1.375c0.271-7.938,0.541-15.879,0.812-23.816
						c-0.992-0.086-1.982-0.176-2.974-0.271c0.062-1.45,0.125-2.901,0.188-4.353c7.874,0.339,15.756,0.396,23.633,0.172
						c0.081,2.835,0.161,5.669,0.242,8.504c-1.796,0.171-3.594,0.327-5.394,0.47c-0.01-0.684-0.018-1.367-0.026-2.05
						c-0.007-0.58-0.102-0.989-0.278-1.227c-0.178-0.237-0.599-0.354-1.262-0.348c-2.586,0.021-5.173,0.012-7.759-0.026
						c-0.044,2.921-0.088,5.842-0.132,8.763c4.142,0.062,8.283,0.05,12.425-0.037c0.037,1.743,0.072,3.485,0.108,5.228
						c-4.204,0.089-8.408,0.102-12.612,0.037c-0.049,3.194-0.097,6.39-0.145,9.582c3.011,0.046,6.021,0.054,9.032,0.022
						c0.673-0.007,1.101-0.142,1.285-0.398c0.183-0.26,0.27-0.679,0.261-1.26c-0.012-0.854-0.024-1.708-0.037-2.562
						c1.887,0.093,3.775,0.17,5.666,0.23C388.85,502.459,388.942,505.499,389.034,508.538z"/>
					<path fill="#8C8C8C" d="M394.907,502.566c2.629-8.095,5.057-16.217,7.284-24.359c-1.104-0.022-2.207-0.051-3.31-0.085
						c-0.086-1.381-0.173-2.762-0.259-4.145c3.934-0.244,7.864-0.562,11.789-0.947c4.463,9.466,9.232,18.845,14.31,28.123
						c0.02-0.003,0.037-0.005,0.058-0.009c1.066-0.088,2.135-0.181,3.203-0.277c0.2,1.438,0.401,2.876,0.604,4.313
						c-4.859,0.681-9.729,1.263-14.605,1.744c-0.138-1.377-0.272-2.754-0.409-4.131c0.705-0.121,1.409-0.244,2.112-0.37
						c0.629-0.135,1.043-0.316,1.244-0.545c0.202-0.229,0.18-0.604-0.064-1.128c-0.505-1.01-1.007-2.021-1.505-3.034
						c-4.312,0.455-8.632,0.831-12.953,1.129c-0.451,1.538-0.909,3.075-1.375,4.611c1.127-0.021,2.253-0.047,3.379-0.078
						c0.105,1.448,0.213,2.896,0.319,4.345c-4.374,0.321-8.753,0.563-13.134,0.728c-0.051-1.383-0.103-2.767-0.154-4.148
						c0.616-0.074,1.232-0.148,1.85-0.227C394.073,503.975,394.614,503.47,394.907,502.566z M407.207,479.093
						c-1.2,4.992-2.472,9.979-3.814,14.957c3.391-0.246,6.776-0.541,10.16-0.885c-2.13-4.678-4.191-9.373-6.188-14.086
						C407.312,479.084,407.26,479.088,407.207,479.093z"/>
					<path fill="#8C8C8C" d="M433.252,498.431c-1.209-7.765-2.419-15.529-3.628-23.295c-0.993,0.104-1.985,0.201-2.979,0.295
						c-0.211-1.438-0.422-2.874-0.632-4.311c4.097-0.602,8.184-1.278,12.26-2.033c0.252,1.36,0.504,2.721,0.756,4.081
						c-0.559,0.156-1.116,0.311-1.677,0.463c-0.979,0.28-1.386,0.906-1.216,1.882c0.648,3.702,1.298,7.403,1.946,11.105
						c2.919-4.812,5.697-9.66,8.335-14.537c-0.972,0.149-1.943,0.295-2.915,0.437c-0.284-1.424-0.566-2.849-0.852-4.271
						c3.967-0.79,7.923-1.653,11.865-2.591c0.319,1.347,0.641,2.692,0.959,4.039c-0.551,0.184-1.103,0.365-1.653,0.548
						c-0.635,0.217-1.209,0.84-1.736,1.868c-1.785,3.45-3.639,6.887-5.562,10.309c4.116,4.239,8.362,8.407,12.735,12.499
						c0.985-0.176,1.972-0.354,2.955-0.539c0.339,1.412,0.678,2.824,1.018,4.236c-4.757,1.142-9.528,2.187-14.316,3.135
						c-0.269-1.357-0.537-2.715-0.806-4.072c0.562-0.164,1.126-0.329,1.688-0.495c0.727-0.218,1.04-0.562,0.942-1.029
						c-0.041-0.201-0.188-0.45-0.441-0.747c-2.407-2.487-4.771-4.998-7.095-7.531c-1.244,2.079-2.516,4.151-3.812,6.217
						c0.274,1.565,0.549,3.13,0.822,4.695c1.065-0.135,2.13-0.274,3.194-0.419c0.264,1.428,0.526,2.855,0.79,4.284
						c-4.496,0.829-9.005,1.572-13.522,2.231c-0.2-1.369-0.398-2.737-0.6-4.107c0.605-0.141,1.213-0.281,1.818-0.426
						c0.549-0.151,0.936-0.357,1.16-0.617C433.279,499.473,433.347,499.038,433.252,498.431z"/>
				</g>
			</g>
			
				<text transform="matrix(1 0 0 1 321.54 287.1562)" display="inline" fill="#8C8C8C" font-family="'BreeSerif-Regular'" font-size="37.8551">Need</text>
		</g>
		<g display="none">
			
				<text transform="matrix(1 -0.1642 0 1 292.9868 348.9316)" display="inline" fill="#FCFC95" font-family="'BreeSerif-Regular'" font-size="46.2447">COFFEE?</text>
			
				<text transform="matrix(1 0 0 1 280.8022 400)" display="inline" fill="#EEEEEE" font-family="'Cookie-Regular'" font-size="65.8763">Push me</text>
			
				<text transform="matrix(1 0 0 1 339.9434 450.501)" display="inline" fill="#E9ECED" font-family="'BebasNeueBold'" font-size="43.0481">For A</text>
			<g display="inline">
				<g>
					<path fill="#EEEEEE" d="M298.906,463.534c4.75,1.137,9.52,2.167,14.305,3.09c7.312,1.396,10.555,4.735,9.684,10.388
						c-0.487,3.104-2.482,5.222-6.044,6.273c2.016,0.868,3.518,2.062,4.511,3.603c0.991,1.541,1.334,3.391,1.004,5.55
						c-0.498,3.275-2.087,5.598-4.812,6.92c-2.722,1.32-6.457,1.572-11.137,0.667c-5.258-1.021-10.499-2.156-15.719-3.409
						c0.323-1.347,0.646-2.691,0.969-4.037c0.618,0.096,1.236,0.189,1.854,0.282c1.089,0.149,1.73-0.194,1.921-1.027
						c1.779-7.742,3.558-15.483,5.337-23.226c-0.963-0.274-1.925-0.554-2.886-0.835C298.23,466.358,298.568,464.946,298.906,463.534
						z M307.007,470.185c-0.635,3.026-1.27,6.053-1.905,9.078c1.306,0.274,2.612,0.54,3.92,0.8c2.191,0.433,3.894,0.306,5.091-0.361
						c1.196-0.667,1.929-1.777,2.204-3.325c0.274-1.548-0.044-2.729-0.946-3.556c-0.903-0.825-2.298-1.415-4.189-1.787
						C309.789,470.759,308.397,470.476,307.007,470.185z M304.166,483.728c-0.733,3.494-1.466,6.989-2.199,10.483
						c1.731,0.363,3.465,0.714,5.201,1.051c4.809,0.931,7.529-0.461,8.139-4.025c0.291-1.684-0.075-3.072-1.088-4.174
						c-1.013-1.101-2.588-1.848-4.738-2.264C307.707,484.456,305.935,484.099,304.166,483.728z"/>
					<path fill="#EEEEEE" d="M324.382,503.046c0.195-1.37,0.392-2.74,0.586-4.11c0.622,0.037,1.243,0.072,1.864,0.106
						c1.094,0.047,1.697-0.357,1.809-1.204c1.046-7.875,2.092-15.749,3.138-23.624c-0.98-0.182-1.96-0.368-2.939-0.56
						c0.204-1.438,0.408-2.875,0.612-4.312c4.661,0.661,9.333,1.224,14.012,1.685c3.977,0.391,6.965,1.355,9.006,2.974
						c2.038,1.616,2.979,4.081,2.776,7.425c-0.142,2.318-0.887,4.191-2.262,5.607s-2.983,2.396-4.812,2.937
						c1.27,0.547,2.227,1.661,2.878,3.354c1.127,2.769,2.286,5.53,3.475,8.289c1.064,0.098,2.13,0.189,3.195,0.277
						c-0.072,1.451-0.146,2.901-0.22,4.353c-4.682-0.237-9.361-0.564-14.033-0.981c0.123-1.379,0.246-2.757,0.369-4.135
						c0.547-0.003,1.094-0.007,1.641-0.012c0.869-0.029,1.323-0.302,1.365-0.812c0.018-0.204-0.039-0.448-0.166-0.732
						c-0.734-1.774-1.458-3.552-2.169-5.329c-0.329-0.888-0.72-1.532-1.18-1.936c-0.459-0.402-1.145-0.646-2.054-0.737
						c-1.657-0.164-3.313-0.341-4.969-0.527c-0.335,2.953-0.67,5.907-1.005,8.861c1.207,0.188,2.414,0.369,3.622,0.546
						c-0.148,1.443-0.298,2.889-0.447,4.334C333.77,504.292,329.071,503.715,324.382,503.046z M336.854,486.198
						c1.562,0.177,3.122,0.343,4.685,0.499c4.426,0.437,6.79-1.279,7.083-5.022c0.171-2.146-0.288-3.587-1.367-4.33
						c-1.081-0.744-2.869-1.227-5.373-1.48c-1.27-0.129-2.539-0.267-3.807-0.41C337.667,479.035,337.26,482.616,336.854,486.198z"/>
					<path fill="#EEEEEE" d="M387.034,506.538c-9.009,0.272-18.026,0.213-27.032-0.181c0.06-1.384,0.121-2.767,0.181-4.147
						c0.621-0.024,1.241-0.05,1.861-0.077c1.091-0.061,1.651-0.521,1.679-1.375c0.271-7.938,0.541-15.879,0.812-23.816
						c-0.992-0.086-1.982-0.176-2.974-0.271c0.062-1.45,0.125-2.901,0.188-4.353c7.874,0.339,15.756,0.396,23.633,0.172
						c0.081,2.835,0.161,5.669,0.242,8.504c-1.796,0.171-3.594,0.327-5.394,0.47c-0.01-0.684-0.018-1.367-0.026-2.05
						c-0.007-0.58-0.102-0.989-0.278-1.227c-0.178-0.237-0.599-0.353-1.262-0.348c-2.586,0.021-5.173,0.012-7.759-0.026
						c-0.044,2.921-0.088,5.842-0.132,8.763c4.142,0.062,8.283,0.05,12.425-0.037c0.037,1.743,0.072,3.485,0.108,5.228
						c-4.204,0.089-8.408,0.102-12.612,0.037c-0.049,3.194-0.097,6.39-0.145,9.582c3.011,0.046,6.021,0.054,9.032,0.022
						c0.673-0.007,1.101-0.142,1.285-0.398c0.183-0.26,0.27-0.679,0.261-1.26c-0.012-0.854-0.024-1.708-0.037-2.562
						c1.887,0.093,3.775,0.17,5.666,0.23C386.85,500.459,386.942,503.499,387.034,506.538z"/>
					<path fill="#EEEEEE" d="M392.907,500.566c2.629-8.095,5.057-16.217,7.284-24.359c-1.104-0.022-2.207-0.051-3.31-0.085
						c-0.086-1.381-0.173-2.762-0.259-4.145c3.934-0.244,7.864-0.562,11.789-0.947c4.463,9.466,9.232,18.845,14.31,28.123
						c0.02-0.003,0.037-0.005,0.058-0.009c1.066-0.088,2.135-0.181,3.203-0.277c0.2,1.438,0.401,2.876,0.604,4.313
						c-4.859,0.681-9.729,1.263-14.605,1.744c-0.138-1.377-0.272-2.754-0.409-4.131c0.705-0.121,1.409-0.244,2.112-0.37
						c0.63-0.134,1.042-0.315,1.244-0.545c0.201-0.229,0.18-0.604-0.064-1.128c-0.505-1.01-1.007-2.021-1.505-3.034
						c-4.312,0.455-8.632,0.831-12.954,1.129c-0.451,1.538-0.909,3.075-1.374,4.611c1.126-0.021,2.252-0.047,3.378-0.078
						c0.105,1.448,0.213,2.896,0.318,4.345c-4.373,0.321-8.752,0.563-13.133,0.728c-0.051-1.383-0.103-2.767-0.154-4.148
						c0.616-0.074,1.232-0.148,1.85-0.227C392.073,501.975,392.614,501.47,392.907,500.566z M405.207,477.093
						c-1.2,4.992-2.472,9.979-3.814,14.957c3.391-0.246,6.777-0.541,10.16-0.885c-2.13-4.678-4.191-9.373-6.188-14.086
						C405.312,477.084,405.26,477.088,405.207,477.093z"/>
					<path fill="#EEEEEE" d="M431.252,496.431c-1.209-7.765-2.419-15.529-3.628-23.295c-0.993,0.104-1.985,0.201-2.979,0.295
						c-0.211-1.438-0.422-2.874-0.632-4.311c4.097-0.602,8.184-1.278,12.26-2.033c0.252,1.36,0.504,2.721,0.756,4.081
						c-0.559,0.156-1.116,0.311-1.677,0.463c-0.979,0.281-1.386,0.906-1.216,1.882c0.648,3.702,1.298,7.403,1.946,11.105
						c2.919-4.812,5.697-9.66,8.335-14.537c-0.972,0.149-1.943,0.295-2.915,0.437c-0.284-1.424-0.566-2.849-0.852-4.271
						c3.967-0.79,7.923-1.653,11.865-2.591c0.319,1.347,0.641,2.692,0.959,4.039c-0.551,0.184-1.103,0.365-1.653,0.548
						c-0.635,0.217-1.21,0.84-1.736,1.868c-1.785,3.45-3.639,6.887-5.562,10.309c4.116,4.239,8.362,8.407,12.735,12.499
						c0.985-0.176,1.972-0.354,2.955-0.539c0.339,1.412,0.678,2.824,1.018,4.236c-4.757,1.142-9.528,2.187-14.316,3.135
						c-0.269-1.357-0.537-2.715-0.806-4.072c0.562-0.164,1.126-0.329,1.688-0.495c0.727-0.218,1.04-0.562,0.942-1.029
						c-0.041-0.201-0.188-0.45-0.441-0.747c-2.407-2.487-4.771-4.998-7.095-7.531c-1.244,2.079-2.516,4.151-3.812,6.217
						c0.274,1.565,0.549,3.13,0.822,4.695c1.065-0.135,2.13-0.274,3.194-0.419c0.264,1.428,0.526,2.855,0.79,4.284
						c-4.496,0.829-9.005,1.572-13.522,2.231c-0.2-1.369-0.398-2.737-0.6-4.107c0.605-0.141,1.213-0.281,1.818-0.426
						c0.549-0.15,0.936-0.357,1.16-0.617C431.279,497.473,431.347,497.038,431.252,496.431z"/>
				</g>
			</g>
			
				<text transform="matrix(1 0 0 1 319.54 285.1562)" display="inline" fill="#E9ECED" font-family="'BreeSerif-Regular'" font-size="37.8551">Need</text>
		</g>
	</g>
	<g>
		<g>
			<g>
				<defs>
					<rect id="SVGID_1_" x="329.667" y="320.264" width="101.665" height="159.472"/>
				</defs>
				<clipPath id="SVGID_2_">
					<use xlink:href="#SVGID_1_"  overflow="visible"/>
				</clipPath>
				<path clip-path="url(#SVGID_2_)" fill="none" stroke="#E9ECED" stroke-width="4.6132" stroke-miterlimit="10" d="
					M373.396,404.849v-55.175c0-6.089-3.037-10.134-10.929-10.134c-7.891,0-10.925,4.045-10.925,10.134v81.741"/>
			</g>
			<g>
				<defs>
					<rect id="SVGID_3_" x="329.667" y="320.264" width="101.665" height="159.472"/>
				</defs>
				<clipPath id="SVGID_4_">
					<use xlink:href="#SVGID_3_"  overflow="visible"/>
				</clipPath>
				<path clip-path="url(#SVGID_4_)" fill="none" stroke="#E9ECED" stroke-width="4.6132" stroke-miterlimit="10" d="
					M413.13,413.703v-19.838c0-8.393-1.966-13.774-9.399-14.477c-6.296-0.599-9.405,1.908-9.405,1.908 M413.13,390.579
					c10.992-1.842,14.456,4.179,15.061,13.812c0.612,9.635,0.833,14.869,0.833,27.023c0,29.316-16.099,46.148-16.099,46.148"/>
			</g>
			<g>
				<defs>
					<rect id="SVGID_5_" x="329.667" y="320.264" width="101.665" height="159.472"/>
				</defs>
				<clipPath id="SVGID_6_">
					<use xlink:href="#SVGID_5_"  overflow="visible"/>
				</clipPath>
				<path clip-path="url(#SVGID_6_)" fill="none" stroke="#E9ECED" stroke-width="4.6132" stroke-miterlimit="10" d="
					M350.609,397.224c-1.162-0.354-4.509-0.678-6.931-0.678c-5.479,0-9.596,4.331-10.43,12.08c0,0-1.09,8.037-1.261,18.581
					c-0.225,13.682,2.214,19.768,7.656,27.631c7.474,10.795,22.985,23.092,22.985,23.092 M395.25,406.898v-18.392
					c0-8.391-2.269-15.923-10.909-15.923c-7.338,0-10.916,1.912-10.916,1.912"/>
			</g>
			<g>
				<defs>
					<rect id="SVGID_7_" x="329.667" y="320.264" width="101.665" height="159.472"/>
				</defs>
				<clipPath id="SVGID_8_">
					<use xlink:href="#SVGID_7_"  overflow="visible"/>
				</clipPath>
				<path clip-path="url(#SVGID_8_)" fill="none" stroke="#FCFC95" stroke-width="4.6132" stroke-miterlimit="10" d="
					M337.256,347.783c0-13.925,11.29-25.215,25.21-25.215c13.925,0,25.215,11.29,25.215,25.215"/>
			</g>
		</g>
	</g>
</g>
</svg>
