<?xml version="1.0" encoding="utf-8"?>
<!-- Generator: Adobe Illustrator 16.0.4, SVG Export Plug-In . SVG Version: 6.00 Build 0)  -->
<!DOCTYPE svg PUBLIC "-//W3C//DTD SVG 1.1//EN" "http://www.w3.org/Graphics/SVG/1.1/DTD/svg11.dtd">
<svg version="1.1" xmlns="http://www.w3.org/2000/svg" xmlns:xlink="http://www.w3.org/1999/xlink" x="0px" y="0px" width="929px"
	 height="800px" viewBox="0 0 929 800" enable-background="new 0 0 929 800" xml:space="preserve">
<g id="Background" display="none">
	<rect display="inline" fill="#7C5B43" width="800" height="800"/>
	<circle display="inline" fill="#9E7457" cx="392.5" cy="426.5" r="184.5"/>
	<circle display="inline" fill="none" stroke="#9E7457" stroke-width="7" stroke-miterlimit="10" cx="392.5" cy="426.5" r="202.5"/>
	<g display="inline">
		
			<circle fill="none" stroke="#9E7457" stroke-width="4" stroke-linecap="round" stroke-miterlimit="10" stroke-dasharray="7.9626,7.9626" cx="392.5" cy="426.5" r="220.5"/>
	</g>
	<g display="inline">
		
			<circle fill="none" stroke="#9E7457" stroke-width="2" stroke-linecap="round" stroke-miterlimit="10" stroke-dasharray="7.9894,7.9894" cx="392.5" cy="426.5" r="236.5"/>
	</g>
	<g display="inline">
		
			<circle fill="none" stroke="#9E7457" stroke-linecap="round" stroke-miterlimit="10" stroke-dasharray="11.948,11.948" cx="392.5" cy="426.5" r="251"/>
	</g>
	<path display="inline" fill="#E9ECED" d="M237,281.643c-0.035-18.855-15.328-34.129-34.191-34.129c-1.596,0-3.164,0.118-4.701,0.33
		c-8.564-10.47-21.583-17.154-36.163-17.154c-18.714,0-34.85,11.013-42.301,26.907c-0.628-0.044-1.26-0.075-1.899-0.075
		c-9.649,0-18.101,5.121-22.788,12.793c-1.359-0.449-2.807-0.7-4.316-0.7c-7.011,0-12.786,5.248-13.64,12.029H237z"/>
	<g display="inline">
		<g>
			<path fill="#5B402E" d="M288.024,781.287v-0.258c-0.349,0.398-0.692,0.725-1.031,0.973c-0.338,0.252-0.706,0.441-1.102,0.57
				c-0.396,0.133-0.827,0.195-1.296,0.195c-0.621,0-1.196-0.131-1.725-0.393c-0.528-0.264-0.986-0.639-1.372-1.127
				c-0.387-0.486-0.68-1.059-0.879-1.719c-0.199-0.658-0.299-1.371-0.299-2.137c0-1.621,0.396-2.885,1.188-3.791
				c0.792-0.904,1.833-1.357,3.125-1.357c0.747,0,1.377,0.129,1.89,0.385c0.513,0.256,1.013,0.652,1.501,1.182v-3.826
				c0-0.533,0.105-0.934,0.318-1.207c0.211-0.271,0.514-0.408,0.907-0.408c0.393,0,0.694,0.125,0.907,0.375
				c0.212,0.252,0.318,0.619,0.318,1.107v11.436c0,0.494-0.113,0.863-0.342,1.111c-0.228,0.246-0.522,0.369-0.883,0.369
				c-0.354,0-0.647-0.127-0.879-0.383C288.139,782.127,288.024,781.762,288.024,781.287z M282.923,777.479
				c0,0.703,0.109,1.301,0.328,1.795c0.219,0.494,0.518,0.865,0.897,1.115c0.38,0.25,0.795,0.377,1.244,0.377
				c0.456,0,0.872-0.119,1.25-0.357c0.376-0.236,0.677-0.602,0.902-1.092c0.225-0.49,0.337-1.105,0.337-1.838
				c0-0.691-0.112-1.285-0.337-1.783c-0.225-0.496-0.528-0.875-0.912-1.139c-0.383-0.262-0.803-0.393-1.258-0.393
				c-0.475,0-0.899,0.135-1.273,0.402c-0.374,0.27-0.663,0.654-0.869,1.158C283.026,776.229,282.923,776.812,282.923,777.479z"/>
			<path fill="#5B402E" d="M299.458,778.135h-5.071c0.006,0.588,0.125,1.107,0.356,1.557c0.23,0.449,0.538,0.789,0.921,1.016
				c0.383,0.229,0.806,0.342,1.268,0.342c0.31,0,0.593-0.035,0.85-0.107c0.257-0.074,0.505-0.188,0.746-0.344
				c0.241-0.154,0.462-0.32,0.665-0.498c0.202-0.178,0.464-0.42,0.788-0.723c0.133-0.113,0.323-0.172,0.571-0.172
				c0.266,0,0.48,0.074,0.645,0.221c0.165,0.146,0.248,0.35,0.248,0.617c0,0.234-0.093,0.506-0.275,0.82
				c-0.185,0.314-0.462,0.615-0.832,0.902c-0.372,0.289-0.835,0.527-1.397,0.717c-0.56,0.191-1.204,0.285-1.933,0.285
				c-1.665,0-2.96-0.475-3.884-1.424s-1.386-2.238-1.386-3.865c0-0.768,0.113-1.479,0.341-2.133
				c0.229-0.656,0.561-1.217,0.997-1.686c0.437-0.469,0.975-0.828,1.615-1.078c0.639-0.25,1.349-0.375,2.127-0.375
				c1.013,0,1.882,0.213,2.606,0.641c0.726,0.428,1.27,0.98,1.63,1.656c0.36,0.678,0.542,1.369,0.542,2.07
				c0,0.654-0.187,1.076-0.56,1.27S300.136,778.135,299.458,778.135z M294.386,776.662h4.702c-0.062-0.887-0.303-1.551-0.717-1.99
				c-0.415-0.441-0.96-0.66-1.638-0.66c-0.646,0-1.177,0.223-1.591,0.668C294.727,775.127,294.476,775.787,294.386,776.662z"/>
			<path fill="#5B402E" d="M311.272,779.377c0,0.715-0.173,1.328-0.522,1.838c-0.348,0.51-0.862,0.896-1.543,1.16
				c-0.68,0.262-1.508,0.393-2.483,0.393c-0.931,0-1.729-0.143-2.394-0.428c-0.665-0.283-1.156-0.641-1.472-1.066
				c-0.317-0.43-0.475-0.857-0.475-1.289c0-0.285,0.101-0.527,0.304-0.73c0.202-0.201,0.459-0.303,0.77-0.303
				c0.271,0,0.48,0.066,0.626,0.199s0.286,0.32,0.417,0.559c0.266,0.465,0.585,0.807,0.956,1.037
				c0.37,0.227,0.875,0.342,1.515,0.342c0.519,0,0.945-0.117,1.277-0.348c0.332-0.232,0.498-0.496,0.498-0.793
				c0-0.457-0.172-0.787-0.518-0.996c-0.345-0.209-0.914-0.41-1.705-0.6c-0.893-0.221-1.619-0.455-2.18-0.699
				c-0.561-0.242-1.008-0.564-1.344-0.963s-0.503-0.891-0.503-1.473c0-0.518,0.155-1.01,0.465-1.473
				c0.311-0.461,0.768-0.83,1.374-1.105c0.604-0.275,1.333-0.414,2.188-0.414c0.671,0,1.275,0.07,1.809,0.211
				c0.536,0.137,0.983,0.326,1.34,0.561c0.358,0.232,0.63,0.492,0.816,0.777s0.28,0.562,0.28,0.836c0,0.297-0.1,0.541-0.298,0.732
				c-0.199,0.188-0.482,0.285-0.851,0.285c-0.266,0-0.492-0.076-0.679-0.23c-0.187-0.15-0.4-0.379-0.641-0.682
				c-0.196-0.254-0.426-0.457-0.693-0.609c-0.266-0.152-0.627-0.227-1.083-0.227c-0.469,0-0.857,0.098-1.168,0.299
				c-0.31,0.199-0.465,0.447-0.465,0.744c0,0.273,0.114,0.496,0.341,0.67c0.229,0.176,0.535,0.32,0.922,0.434
				c0.386,0.113,0.917,0.252,1.596,0.416c0.803,0.197,1.46,0.432,1.97,0.703c0.509,0.271,0.896,0.594,1.16,0.965
				C311.142,778.48,311.272,778.902,311.272,779.377z"/>
			<path fill="#5B402E" d="M313.921,771.02c-0.361,0-0.669-0.111-0.926-0.332s-0.385-0.535-0.385-0.941
				c0-0.367,0.131-0.668,0.394-0.906s0.569-0.357,0.917-0.357c0.336,0,0.633,0.107,0.893,0.324c0.26,0.215,0.39,0.527,0.39,0.939
				c0,0.4-0.127,0.711-0.381,0.936C314.57,770.906,314.27,771.02,313.921,771.02z M315.204,773.697v7.494
				c0,0.52-0.124,0.912-0.371,1.178c-0.248,0.266-0.56,0.398-0.94,0.398s-0.689-0.135-0.926-0.408
				c-0.238-0.271-0.356-0.662-0.356-1.168v-7.418c0-0.512,0.118-0.898,0.356-1.158c0.237-0.26,0.546-0.391,0.926-0.391
				s0.693,0.131,0.94,0.391C315.081,772.875,315.204,773.236,315.204,773.697z"/>
			<path fill="#5B402E" d="M326.563,774.125v7.531c0,0.861-0.093,1.604-0.277,2.225c-0.182,0.619-0.477,1.133-0.883,1.537
				c-0.405,0.404-0.936,0.707-1.59,0.902c-0.655,0.197-1.471,0.295-2.446,0.295c-0.893,0-1.69-0.125-2.394-0.375
				c-0.702-0.252-1.243-0.574-1.624-0.969c-0.379-0.396-0.57-0.803-0.57-1.221c0-0.316,0.108-0.576,0.324-0.773
				c0.215-0.201,0.475-0.301,0.778-0.301c0.38,0,0.712,0.168,0.998,0.504c0.139,0.17,0.283,0.344,0.432,0.518
				c0.149,0.176,0.314,0.324,0.494,0.447c0.181,0.123,0.397,0.215,0.65,0.275c0.253,0.059,0.545,0.09,0.874,0.09
				c0.671,0,1.192-0.094,1.563-0.281c0.371-0.186,0.63-0.447,0.779-0.783c0.149-0.334,0.236-0.693,0.261-1.078
				c0.025-0.383,0.044-0.998,0.057-1.848c-0.399,0.559-0.859,0.982-1.382,1.273c-0.522,0.291-1.145,0.438-1.866,0.438
				c-0.868,0-1.625-0.223-2.275-0.666c-0.648-0.443-1.147-1.062-1.495-1.861c-0.349-0.799-0.522-1.719-0.522-2.764
				c0-0.777,0.105-1.482,0.317-2.107c0.213-0.629,0.515-1.156,0.907-1.588c0.393-0.43,0.845-0.754,1.358-0.973
				s1.076-0.328,1.691-0.328c0.734,0,1.371,0.143,1.909,0.422c0.538,0.283,1.039,0.725,1.5,1.326v-0.352
				c0-0.449,0.11-0.797,0.332-1.045c0.222-0.246,0.507-0.371,0.855-0.371c0.5,0,0.832,0.164,0.997,0.49
				C326.48,773.041,326.563,773.512,326.563,774.125z M319.05,777.412c0,1.051,0.229,1.846,0.688,2.383
				c0.459,0.539,1.053,0.809,1.781,0.809c0.43,0,0.837-0.117,1.22-0.348c0.384-0.23,0.695-0.58,0.937-1.045
				c0.24-0.465,0.361-1.029,0.361-1.695c0-1.057-0.232-1.881-0.698-2.469s-1.078-0.883-1.838-0.883c-0.741,0-1.334,0.281-1.78,0.846
				C319.272,775.572,319.05,776.373,319.05,777.412z"/>
			<path fill="#5B402E" d="M330.684,773.66v0.312c0.455-0.602,0.954-1.043,1.496-1.324s1.163-0.424,1.866-0.424
				c0.684,0,1.295,0.15,1.833,0.447c0.538,0.299,0.941,0.719,1.206,1.262c0.172,0.318,0.282,0.66,0.333,1.027
				c0.051,0.367,0.077,0.836,0.077,1.406v4.824c0,0.52-0.119,0.912-0.357,1.178c-0.237,0.266-0.546,0.398-0.926,0.398
				c-0.387,0-0.7-0.135-0.94-0.408c-0.241-0.271-0.361-0.662-0.361-1.168v-4.322c0-0.854-0.119-1.508-0.356-1.961
				c-0.238-0.451-0.71-0.68-1.42-0.68c-0.461,0-0.883,0.139-1.263,0.414s-0.659,0.654-0.836,1.135
				c-0.126,0.387-0.19,1.107-0.19,2.166v3.248c0,0.525-0.123,0.92-0.365,1.184c-0.244,0.262-0.559,0.393-0.945,0.393
				c-0.375,0-0.681-0.135-0.922-0.408c-0.24-0.271-0.361-0.662-0.361-1.168v-7.494c0-0.494,0.107-0.863,0.323-1.107
				c0.215-0.242,0.51-0.365,0.883-0.365c0.229,0,0.435,0.055,0.619,0.162c0.183,0.109,0.331,0.27,0.441,0.484
				S330.684,773.35,330.684,773.66z"/>
			<path fill="#5B402E" d="M346.458,778.135h-5.071c0.007,0.588,0.125,1.107,0.356,1.557c0.231,0.449,0.538,0.789,0.921,1.016
				c0.382,0.229,0.805,0.342,1.267,0.342c0.311,0,0.594-0.035,0.851-0.107c0.255-0.074,0.504-0.188,0.746-0.344
				c0.24-0.154,0.461-0.32,0.665-0.498c0.202-0.178,0.464-0.42,0.788-0.723c0.133-0.113,0.323-0.172,0.57-0.172
				c0.266,0,0.481,0.074,0.646,0.221s0.247,0.35,0.247,0.617c0,0.234-0.091,0.506-0.275,0.82s-0.461,0.615-0.832,0.902
				c-0.371,0.289-0.835,0.527-1.396,0.717c-0.561,0.191-1.205,0.285-1.933,0.285c-1.665,0-2.96-0.475-3.885-1.424
				c-0.923-0.949-1.386-2.238-1.386-3.865c0-0.768,0.114-1.479,0.342-2.133c0.228-0.656,0.561-1.217,0.998-1.686
				c0.437-0.469,0.975-0.828,1.614-1.078s1.349-0.375,2.128-0.375c1.013,0,1.881,0.213,2.606,0.641
				c0.726,0.428,1.269,0.98,1.63,1.656c0.36,0.678,0.542,1.369,0.542,2.07c0,0.654-0.187,1.076-0.561,1.27
				C347.662,778.037,347.136,778.135,346.458,778.135z M341.387,776.662h4.701c-0.063-0.887-0.302-1.551-0.717-1.99
				c-0.415-0.441-0.961-0.66-1.638-0.66c-0.646,0-1.177,0.223-1.592,0.668C341.726,775.127,341.476,775.787,341.387,776.662z"/>
			<path fill="#5B402E" d="M357.028,781.287v-0.258c-0.348,0.398-0.691,0.725-1.03,0.973c-0.339,0.252-0.706,0.441-1.102,0.57
				c-0.395,0.133-0.828,0.195-1.296,0.195c-0.622,0-1.196-0.131-1.724-0.393c-0.529-0.264-0.986-0.639-1.373-1.127
				c-0.387-0.486-0.679-1.059-0.878-1.719c-0.2-0.658-0.299-1.371-0.299-2.137c0-1.621,0.396-2.885,1.187-3.791
				c0.792-0.904,1.833-1.357,3.125-1.357c0.747,0,1.377,0.129,1.89,0.385s1.013,0.652,1.5,1.182v-3.826
				c0-0.533,0.106-0.934,0.319-1.207c0.211-0.271,0.515-0.408,0.907-0.408c0.392,0,0.694,0.125,0.907,0.375
				c0.212,0.252,0.318,0.619,0.318,1.107v11.436c0,0.494-0.114,0.863-0.342,1.111c-0.228,0.246-0.522,0.369-0.883,0.369
				c-0.354,0-0.647-0.127-0.879-0.383C357.144,782.127,357.028,781.762,357.028,781.287z M351.928,777.479
				c0,0.703,0.108,1.301,0.327,1.795c0.218,0.494,0.518,0.865,0.898,1.115c0.379,0.25,0.794,0.377,1.243,0.377
				c0.457,0,0.873-0.119,1.249-0.357c0.377-0.236,0.678-0.602,0.902-1.092c0.225-0.49,0.337-1.105,0.337-1.838
				c0-0.691-0.112-1.285-0.337-1.783c-0.224-0.496-0.528-0.875-0.912-1.139c-0.384-0.262-0.803-0.393-1.259-0.393
				c-0.474,0-0.899,0.135-1.272,0.402c-0.373,0.27-0.663,0.654-0.869,1.158S351.928,776.812,351.928,777.479z"/>
			<path fill="#5B402E" d="M367.626,769.852v3.959c0.487-0.506,0.984-0.895,1.491-1.162c0.506-0.27,1.134-0.404,1.881-0.404
				c0.861,0,1.616,0.205,2.266,0.611c0.648,0.41,1.151,1.002,1.51,1.777c0.357,0.775,0.537,1.695,0.537,2.76
				c0,0.785-0.1,1.504-0.299,2.16c-0.2,0.656-0.49,1.225-0.869,1.705c-0.38,0.48-0.841,0.854-1.382,1.117
				c-0.542,0.262-1.139,0.393-1.791,0.393c-0.399,0-0.775-0.047-1.125-0.143c-0.352-0.094-0.651-0.219-0.898-0.375
				c-0.246-0.154-0.457-0.314-0.631-0.479s-0.404-0.412-0.689-0.742v0.258c0,0.486-0.117,0.855-0.352,1.107
				c-0.233,0.25-0.531,0.373-0.893,0.373c-0.367,0-0.66-0.123-0.878-0.373c-0.219-0.252-0.328-0.621-0.328-1.107v-11.322
				c0-0.525,0.106-0.924,0.317-1.191c0.212-0.27,0.509-0.404,0.889-0.404c0.399,0,0.706,0.129,0.921,0.385
				C367.518,769.012,367.626,769.375,367.626,769.852z M367.75,777.555c0,1.031,0.236,1.824,0.708,2.377
				c0.472,0.555,1.091,0.834,1.857,0.834c0.652,0,1.214-0.283,1.686-0.852c0.472-0.566,0.708-1.379,0.708-2.436
				c0-0.684-0.097-1.273-0.294-1.768s-0.475-0.875-0.835-1.145c-0.361-0.268-0.783-0.402-1.264-0.402
				c-0.494,0-0.935,0.135-1.32,0.402c-0.386,0.27-0.69,0.658-0.912,1.168C367.86,776.244,367.75,776.852,367.75,777.555z"/>
			<path fill="#5B402E" d="M378.672,783.092l0.237-0.58l-3.191-8.035c-0.196-0.461-0.295-0.799-0.295-1.008
				c0-0.221,0.058-0.426,0.171-0.615c0.114-0.191,0.271-0.344,0.47-0.457c0.2-0.115,0.407-0.172,0.623-0.172
				c0.373,0,0.655,0.119,0.846,0.357c0.19,0.236,0.357,0.576,0.503,1.02l2.194,6.383l2.08-5.936c0.164-0.48,0.313-0.857,0.446-1.131
				c0.133-0.271,0.273-0.455,0.422-0.549c0.148-0.096,0.359-0.145,0.632-0.145c0.197,0,0.385,0.053,0.565,0.158
				c0.18,0.104,0.319,0.244,0.417,0.422c0.098,0.178,0.148,0.363,0.148,0.561c-0.026,0.119-0.066,0.291-0.124,0.514
				c-0.058,0.221-0.126,0.447-0.208,0.674l-3.381,8.852c-0.292,0.779-0.577,1.389-0.855,1.832s-0.647,0.785-1.106,1.021
				c-0.459,0.238-1.078,0.357-1.857,0.357c-0.759,0-1.33-0.082-1.708-0.246c-0.381-0.166-0.57-0.467-0.57-0.904
				c0-0.297,0.089-0.527,0.271-0.688c0.18-0.162,0.448-0.244,0.801-0.244c0.14,0,0.276,0.02,0.409,0.059
				c0.165,0.037,0.307,0.057,0.427,0.057c0.297,0,0.532-0.043,0.704-0.133c0.17-0.088,0.324-0.242,0.46-0.461
				C378.337,783.838,378.495,783.516,378.672,783.092z"/>
		</g>
		<g>
			<path fill="#5B402E" d="M416.234,772.449h0.619v-0.777c0-0.814,0.1-1.457,0.307-1.938c0.203-0.479,0.555-0.826,1.047-1.045
				c0.49-0.217,1.162-0.326,2.016-0.326c1.52,0,2.273,0.367,2.273,1.113c0,0.238-0.08,0.445-0.24,0.615
				c-0.154,0.17-0.344,0.256-0.559,0.256c-0.1,0-0.277-0.018-0.527-0.059c-0.236-0.033-0.451-0.057-0.623-0.057
				c-0.467,0-0.766,0.141-0.904,0.416c-0.127,0.275-0.195,0.668-0.195,1.184v0.617h0.633c0.99,0,1.48,0.297,1.48,0.896
				c0,0.418-0.127,0.689-0.393,0.805c-0.262,0.113-0.623,0.17-1.088,0.17h-0.633v6.871c0,0.512-0.121,0.9-0.369,1.168
				c-0.242,0.273-0.555,0.406-0.943,0.406c-0.367,0-0.67-0.133-0.918-0.406c-0.244-0.268-0.363-0.656-0.363-1.168v-6.871h-0.715
				c-0.389,0-0.682-0.084-0.893-0.262c-0.209-0.17-0.314-0.398-0.314-0.678C414.932,772.758,415.365,772.449,416.234,772.449"/>
			<path fill="#5B402E" d="M424.725,779.023v2.168c0,0.523-0.133,0.92-0.375,1.18c-0.246,0.266-0.559,0.395-0.938,0.395
				c-0.381,0-0.688-0.131-0.926-0.4c-0.236-0.264-0.361-0.656-0.361-1.174v-7.223c0-1.166,0.42-1.748,1.262-1.748
				c0.434,0,0.742,0.135,0.934,0.408c0.189,0.273,0.295,0.674,0.316,1.207c0.309-0.533,0.625-0.934,0.949-1.207
				c0.332-0.273,0.762-0.408,1.309-0.408c0.549,0,1.072,0.135,1.586,0.408c0.516,0.273,0.771,0.637,0.771,1.084
				c0,0.314-0.111,0.58-0.326,0.781c-0.221,0.209-0.455,0.312-0.707,0.312c-0.1,0-0.33-0.062-0.691-0.18
				c-0.365-0.113-0.689-0.174-0.963-0.174c-0.381,0-0.693,0.104-0.932,0.299c-0.242,0.205-0.432,0.496-0.564,0.887
				c-0.129,0.395-0.219,0.865-0.273,1.404C424.746,777.584,424.725,778.246,424.725,779.023"/>
			<path fill="#5B402E" d="M436.645,778.131h-5.074c0.01,0.588,0.125,1.111,0.355,1.559c0.234,0.447,0.539,0.787,0.924,1.018
				c0.385,0.227,0.805,0.34,1.27,0.34c0.311,0,0.592-0.033,0.85-0.111c0.254-0.07,0.504-0.186,0.744-0.342
				c0.242-0.152,0.461-0.318,0.664-0.5c0.203-0.174,0.467-0.416,0.791-0.719c0.135-0.113,0.324-0.174,0.568-0.174
				c0.268,0,0.48,0.074,0.648,0.223c0.166,0.146,0.244,0.35,0.244,0.617c0,0.234-0.09,0.508-0.268,0.818
				c-0.188,0.318-0.463,0.617-0.836,0.906c-0.375,0.285-0.84,0.527-1.398,0.715c-0.559,0.189-1.205,0.285-1.932,0.285
				c-1.67,0-2.963-0.473-3.887-1.422c-0.924-0.951-1.391-2.242-1.391-3.867c0-0.768,0.117-1.479,0.348-2.135
				c0.225-0.658,0.557-1.217,0.998-1.688c0.436-0.471,0.971-0.828,1.613-1.078c0.637-0.25,1.346-0.375,2.127-0.375
				c1.012,0,1.881,0.215,2.607,0.646c0.723,0.422,1.273,0.977,1.629,1.654c0.361,0.68,0.541,1.367,0.541,2.074
				c0,0.648-0.188,1.07-0.561,1.266C437.848,778.035,437.322,778.131,436.645,778.131 M431.57,776.656h4.701
				c-0.062-0.885-0.297-1.549-0.713-1.986c-0.418-0.441-0.959-0.66-1.641-0.66c-0.646,0-1.178,0.221-1.592,0.67
				C431.912,775.125,431.658,775.783,431.57,776.656"/>
			<path fill="#5B402E" d="M447.432,778.131h-5.072c0.006,0.588,0.125,1.111,0.354,1.559c0.232,0.447,0.539,0.787,0.922,1.018
				c0.383,0.227,0.805,0.34,1.271,0.34c0.307,0,0.592-0.033,0.844-0.111c0.26-0.07,0.506-0.186,0.75-0.342
				c0.242-0.152,0.461-0.318,0.664-0.5c0.199-0.174,0.465-0.416,0.789-0.719c0.135-0.113,0.326-0.174,0.568-0.174
				c0.268,0,0.482,0.074,0.65,0.223c0.164,0.146,0.24,0.35,0.24,0.617c0,0.234-0.088,0.508-0.273,0.818
				c-0.178,0.318-0.455,0.617-0.83,0.906c-0.371,0.285-0.84,0.527-1.396,0.715c-0.557,0.189-1.207,0.285-1.934,0.285
				c-1.668,0-2.959-0.473-3.887-1.422c-0.924-0.951-1.389-2.242-1.389-3.867c0-0.768,0.115-1.479,0.348-2.135
				c0.227-0.658,0.559-1.217,0.996-1.688c0.436-0.471,0.973-0.828,1.613-1.078c0.639-0.25,1.352-0.375,2.129-0.375
				c1.01,0,1.879,0.215,2.613,0.646c0.721,0.422,1.266,0.977,1.621,1.654c0.359,0.68,0.545,1.367,0.545,2.074
				c0,0.648-0.191,1.07-0.561,1.266C448.633,778.035,448.107,778.131,447.432,778.131 M442.359,776.656h4.701
				c-0.064-0.885-0.305-1.549-0.715-1.986c-0.422-0.441-0.963-0.66-1.643-0.66c-0.646,0-1.176,0.221-1.594,0.67
				C442.697,775.125,442.443,775.783,442.359,776.656"/>
			<path fill="#5B402E" d="M453.111,773.68v0.311c0.486-0.602,0.994-1.043,1.525-1.324c0.518-0.285,1.117-0.428,1.781-0.428
				c0.795,0,1.535,0.209,2.207,0.617c0.672,0.414,1.199,1.016,1.59,1.807c0.389,0.795,0.586,1.73,0.586,2.814
				c0,0.795-0.113,1.531-0.336,2.201c-0.225,0.668-0.537,1.227-0.93,1.68c-0.393,0.449-0.855,0.801-1.389,1.045
				c-0.543,0.242-1.111,0.363-1.729,0.363c-0.738,0-1.363-0.148-1.865-0.447c-0.502-0.291-0.982-0.732-1.441-1.305v3.893
				c0,1.135-0.416,1.709-1.244,1.709c-0.49,0-0.809-0.146-0.971-0.439c-0.152-0.299-0.234-0.723-0.234-1.291v-11.193
				c0-0.494,0.107-0.859,0.32-1.107c0.215-0.238,0.512-0.363,0.885-0.363c0.369,0,0.666,0.125,0.896,0.373
				C452.998,772.848,453.111,773.205,453.111,773.68 M458.195,777.447c0-0.686-0.105-1.273-0.314-1.764
				c-0.209-0.492-0.498-0.867-0.865-1.127c-0.367-0.264-0.783-0.396-1.232-0.396c-0.715,0-1.318,0.283-1.809,0.844
				c-0.492,0.566-0.74,1.395-0.74,2.492c0,1.027,0.244,1.834,0.736,2.406c0.486,0.574,1.086,0.859,1.812,0.859
				c0.428,0,0.83-0.127,1.197-0.373c0.371-0.252,0.664-0.627,0.883-1.127C458.084,778.76,458.195,778.154,458.195,777.447"/>
			<path fill="#5B402E" d="M463.412,771.014c-0.363,0-0.67-0.115-0.924-0.336c-0.26-0.223-0.387-0.531-0.387-0.936
				c0-0.369,0.131-0.67,0.396-0.91c0.262-0.234,0.566-0.355,0.914-0.355c0.34,0,0.635,0.105,0.893,0.318
				c0.26,0.219,0.391,0.535,0.391,0.947c0,0.398-0.127,0.711-0.377,0.936C464.064,770.898,463.764,771.014,463.412,771.014
				 M464.695,773.691v7.502c0,0.516-0.123,0.908-0.369,1.172c-0.25,0.27-0.561,0.4-0.941,0.4s-0.686-0.133-0.928-0.406
				c-0.234-0.275-0.355-0.664-0.355-1.166v-7.428c0-0.51,0.121-0.895,0.355-1.154c0.242-0.264,0.547-0.391,0.928-0.391
				s0.691,0.127,0.941,0.391C464.572,772.871,464.695,773.234,464.695,773.691"/>
			<path fill="#5B402E" d="M473.055,781.582l-2.283-3.766l-1.408,1.328v2.066c0,0.498-0.133,0.881-0.396,1.148
				c-0.258,0.273-0.566,0.406-0.906,0.406c-0.398,0-0.715-0.131-0.941-0.4c-0.227-0.264-0.344-0.656-0.344-1.174v-11.062
				c0-0.574,0.115-1.012,0.332-1.314c0.223-0.305,0.545-0.451,0.953-0.451c0.398,0,0.713,0.137,0.949,0.41
				c0.234,0.271,0.354,0.674,0.354,1.203v6.293l2.916-3.062c0.361-0.377,0.633-0.641,0.826-0.779
				c0.189-0.139,0.42-0.207,0.689-0.207c0.326,0,0.594,0.104,0.816,0.309c0.211,0.205,0.32,0.465,0.32,0.773
				c0,0.379-0.354,0.889-1.055,1.521l-1.377,1.262l2.658,4.184c0.193,0.312,0.34,0.543,0.424,0.705
				c0.084,0.16,0.131,0.32,0.131,0.463c0,0.412-0.115,0.734-0.342,0.975c-0.225,0.236-0.523,0.354-0.885,0.354
				c-0.316,0-0.564-0.08-0.734-0.256C473.582,782.338,473.346,782.027,473.055,781.582"/>
			<path fill="#5B402E" d="M478.691,782.766c-0.393,0-0.729-0.125-1.014-0.381c-0.285-0.248-0.43-0.605-0.43-1.064
				c0-0.385,0.139-0.719,0.41-0.994c0.275-0.279,0.607-0.42,1.008-0.42c0.398,0,0.736,0.141,1.023,0.412
				c0.279,0.275,0.422,0.613,0.422,1.002c0,0.453-0.143,0.809-0.422,1.061C479.402,782.641,479.07,782.766,478.691,782.766"/>
			<path fill="#5B402E" d="M491.59,779.557c0,0.32-0.098,0.668-0.291,1.033c-0.191,0.371-0.488,0.719-0.887,1.051
				c-0.395,0.332-0.891,0.602-1.494,0.803c-0.602,0.203-1.281,0.307-2.031,0.307c-1.605,0-2.857-0.469-3.758-1.4
				c-0.895-0.936-1.346-2.189-1.346-3.76c0-1.068,0.205-2.006,0.619-2.824c0.408-0.814,1.004-1.447,1.781-1.895
				c0.779-0.447,1.717-0.67,2.795-0.67c0.674,0,1.287,0.098,1.852,0.295c0.561,0.195,1.033,0.451,1.426,0.76
				c0.387,0.314,0.686,0.643,0.889,0.992c0.207,0.352,0.309,0.68,0.309,0.986c0,0.309-0.113,0.572-0.344,0.787
				c-0.234,0.215-0.516,0.324-0.838,0.324c-0.219,0-0.398-0.057-0.541-0.166c-0.145-0.111-0.305-0.289-0.479-0.541
				c-0.318-0.479-0.646-0.842-0.996-1.08c-0.344-0.242-0.781-0.361-1.314-0.361c-0.762,0-1.383,0.297-1.854,0.896
				c-0.467,0.596-0.703,1.42-0.703,2.455c0,0.488,0.062,0.939,0.184,1.348c0.117,0.406,0.291,0.756,0.52,1.043
				c0.23,0.287,0.504,0.506,0.826,0.654c0.324,0.154,0.682,0.227,1.064,0.227c0.521,0,0.967-0.121,1.336-0.361
				c0.377-0.24,0.703-0.607,0.986-1.102c0.158-0.291,0.328-0.518,0.51-0.684c0.182-0.164,0.408-0.25,0.676-0.25
				c0.316,0,0.58,0.123,0.785,0.363C491.482,779.027,491.59,779.285,491.59,779.557"/>
			<path fill="#5B402E" d="M502.779,777.496c0,0.77-0.121,1.484-0.355,2.139c-0.246,0.652-0.592,1.213-1.049,1.678
				c-0.455,0.469-1.002,0.828-1.633,1.08c-0.639,0.248-1.35,0.375-2.139,0.375c-0.785,0-1.492-0.127-2.121-0.383
				c-0.623-0.248-1.17-0.613-1.625-1.082c-0.461-0.477-0.809-1.033-1.053-1.676c-0.229-0.645-0.35-1.355-0.35-2.131
				c0-0.787,0.123-1.506,0.357-2.158c0.242-0.654,0.59-1.213,1.039-1.674c0.451-0.461,0.994-0.816,1.631-1.07
				c0.645-0.248,1.35-0.373,2.121-0.373c0.785,0,1.498,0.125,2.139,0.381c0.639,0.252,1.184,0.615,1.645,1.08
				c0.457,0.475,0.803,1.029,1.039,1.672C502.66,776.004,502.779,776.713,502.779,777.496 M500.176,777.496
				c0-1.059-0.234-1.881-0.697-2.469c-0.463-0.596-1.09-0.889-1.875-0.889c-0.508,0-0.955,0.133-1.342,0.395
				s-0.682,0.648-0.891,1.164c-0.209,0.514-0.314,1.113-0.314,1.799c0,0.678,0.102,1.268,0.309,1.773
				c0.209,0.51,0.502,0.896,0.887,1.166c0.385,0.266,0.834,0.404,1.352,0.404c0.785,0,1.412-0.297,1.875-0.893
				C499.941,779.357,500.176,778.537,500.176,777.496"/>
			<path fill="#5B402E" d="M512.672,777.686v3.447c0,0.547-0.121,0.951-0.369,1.227c-0.25,0.273-0.572,0.408-0.979,0.408
				c-0.393,0-0.713-0.135-0.951-0.408c-0.246-0.275-0.371-0.68-0.371-1.227v-4.131c0-0.654-0.021-1.162-0.064-1.525
				c-0.045-0.354-0.168-0.654-0.361-0.883c-0.197-0.234-0.51-0.352-0.932-0.352c-0.85,0-1.406,0.291-1.676,0.881
				c-0.268,0.576-0.406,1.414-0.406,2.508v3.502c0,0.537-0.123,0.945-0.361,1.223c-0.25,0.273-0.568,0.412-0.965,0.412
				s-0.717-0.139-0.967-0.412c-0.252-0.277-0.377-0.686-0.377-1.223v-7.42c0-0.488,0.111-0.859,0.336-1.111
				c0.229-0.256,0.525-0.381,0.889-0.381c0.357,0,0.652,0.123,0.893,0.355c0.236,0.238,0.354,0.566,0.354,0.984v0.244
				c0.453-0.535,0.936-0.932,1.445-1.18c0.516-0.26,1.082-0.387,1.713-0.387c0.65,0,1.211,0.131,1.678,0.391
				c0.469,0.26,0.854,0.654,1.16,1.176c0.439-0.527,0.908-0.922,1.41-1.18c0.5-0.258,1.053-0.387,1.662-0.387
				c0.705,0,1.32,0.143,1.834,0.42c0.51,0.277,0.893,0.68,1.146,1.195c0.221,0.473,0.33,1.209,0.33,2.217v5.062
				c0,0.547-0.121,0.951-0.367,1.227c-0.246,0.273-0.574,0.408-0.979,0.408c-0.395,0-0.715-0.139-0.965-0.412
				c-0.25-0.277-0.377-0.686-0.377-1.223v-4.361c0-0.559-0.023-1.004-0.068-1.338c-0.047-0.338-0.178-0.621-0.383-0.848
				c-0.213-0.227-0.531-0.344-0.953-0.344c-0.342,0-0.666,0.107-0.975,0.309c-0.307,0.197-0.547,0.477-0.721,0.812
				C512.77,775.801,512.672,776.576,512.672,777.686"/>
		</g>
		<g>
			<path fill="#5B402E" d="M391.967,776.867c-0.002-0.004-0.002-0.01-0.002-0.018C391.965,776.857,391.965,776.863,391.967,776.867z
				"/>
			<path fill="#5B402E" d="M392.098,777.697c0.002,0,0.002,0,0.003,0c-0.05-0.236-0.088-0.471-0.119-0.703
				C392.012,777.229,392.051,777.463,392.098,777.697z"/>
			<path fill="#5B402E" d="M392.956,780.104c-0.006-0.01-0.011-0.021-0.017-0.033C392.945,780.082,392.95,780.094,392.956,780.104z"
				/>
			<path fill="#5B402E" d="M392.874,779.943c-0.022-0.045-0.044-0.09-0.065-0.135C392.83,779.855,392.852,779.898,392.874,779.943z"
				/>
			<path fill="#5B402E" d="M392.339,778.623c0.127,0.4,0.28,0.789,0.457,1.158c-0.18-0.377-0.33-0.766-0.454-1.158
				C392.341,778.623,392.34,778.623,392.339,778.623z"/>
			<path fill="#5B402E" d="M402.004,766.932c0.502,0,0.871,0.039,1.295,0.111l0.121-0.764c0,0-1.172-0.359-2.711-0.234l-0.121-0.414
				c0.479-0.102,0.838-0.527,0.838-1.035c0-0.582-0.474-1.053-1.057-1.053s-1.056,0.471-1.056,1.053
				c0,0.508,0.358,0.934,0.836,1.035l0.134,0.463c-1.634,0.225-2.935,0.861-2.935,0.861l0.23,0.705
				c0.989-0.328,1.846-0.529,2.624-0.613C400.964,766.967,401.537,766.932,402.004,766.932z"/>
			<path fill="#5B402E" d="M392.937,770.789l0.006-0.008c0.039-0.049,0.076-0.096,0.113-0.143l-0.313-0.225l-0.488-0.357
				c-0.027,0.039-0.795,0.744-1.401,2.049c-0.025-0.041-0.056-0.082-0.09-0.119c-0.182-0.199-0.436-0.301-0.758-0.295
				c-0.004,0-0.009,0-0.015,0c-0.2,0-0.337-0.066-0.427-0.146c0.089-0.113,0.143-0.256,0.143-0.414c0-0.367-0.3-0.668-0.669-0.668
				c-0.369,0-0.668,0.301-0.668,0.668c0,0.371,0.3,0.67,0.668,0.67c0.058,0,0.113-0.01,0.167-0.021
				c0.165,0.184,0.425,0.342,0.808,0.334c0.197-0.002,0.341,0.049,0.438,0.156c0.111,0.121,0.148,0.295,0.16,0.428
				c-0.001,0.002-0.001,0.004-0.003,0.004c-0.436,1.189-0.311,2.67-0.311,2.67l1.057,0.043c0.021-0.539,0.099-1.482,0.372-2.23
				C392.25,771.734,392.91,770.828,392.937,770.789z"/>
			<path fill="#5B402E" d="M411.203,767.814c-0.367,0-0.668,0.299-0.668,0.67c0,0.057,0.008,0.111,0.023,0.164
				c-0.184,0.166-0.344,0.428-0.338,0.811c0.004,0.197-0.047,0.34-0.154,0.438c-0.084,0.074-0.191,0.115-0.295,0.141
				c-0.787-1.104-1.756-1.775-1.756-1.775l-0.76,0.812c0.574,0.521,1.16,1.176,1.729,1.99c0.395,0.564,0.799,1.291,1.137,2.016
				l1.023-0.486c0,0-0.467-1.156-1.125-2.191c0.113-0.041,0.229-0.104,0.33-0.193c0.201-0.18,0.299-0.436,0.293-0.758
				c-0.002-0.207,0.066-0.348,0.148-0.441c0.115,0.088,0.258,0.143,0.412,0.143c0.371,0,0.67-0.299,0.67-0.668
				C411.873,768.113,411.574,767.814,411.203,767.814z"/>
			<path fill="#5B402E" d="M408.547,777.018c-1.41,0.686-3.729,1.594-6.781,2.02c-1.199,0.166-2.36,0.227-3.429,0.227
				c-1.391,0-2.62-0.104-3.562-0.223c-1.076-0.135-1.917-0.301-2.432-0.418c0.124,0.393,0.273,0.781,0.454,1.158
				c0.003,0.01,0.008,0.021,0.013,0.027c0.021,0.045,0.043,0.09,0.065,0.135c0.021,0.043,0.043,0.086,0.065,0.127
				c0.006,0.012,0.011,0.023,0.017,0.033c0.303,0.57,0.667,1.094,1.081,1.549c1.44,1.574,2.907,1.824,2.921,1.826l0.023,0.002
				l0.021,0.008c0.013,0.006,1.314,0.426,3.292,0.426c1.945,0,3.855-0.393,5.673-1.168c1.348-0.689,2.623-1.736,3.254-2.67
				c0.488-0.723,0.842-1.492,1.051-2.293c0.111-0.426,0.199-1.107,0.146-1.826C410.021,776.225,409.395,776.604,408.547,777.018z"/>
			<path fill="#5B402E" d="M393.389,771.123c-0.041,0.061-0.652,0.926-1.135,2.254c-0.362,0.994-0.346,2.443-0.346,2.459v0.004
				c0,0.34,0.019,0.676,0.057,1.01c0,0.008,0,0.014,0.002,0.018c0.004,0.043,0.011,0.084,0.015,0.127
				c0.03,0.232,0.069,0.467,0.119,0.703c0.7,0.178,4.878,1.152,9.548,0.502c2.928-0.408,5.15-1.273,6.5-1.928
				c1.121-0.543,1.842-1.035,2.119-1.238c-0.277-1.027-1.041-2.641-1.742-3.646c-2.006-2.865-4.168-3.6-5.277-3.783
				c-0.424-0.068-0.764-0.109-1.244-0.109c-0.447,0-1.002,0.037-1.743,0.115c-0.743,0.076-1.572,0.271-2.532,0.596
				c-1.348,0.451-2.567,1.158-3.527,2.047l-0.033,0.031C394.027,770.414,393.73,770.689,393.389,771.123z M405.658,770.457
				c0.961,0,1.744,0.781,1.744,1.742c0,0.963-0.783,1.744-1.744,1.744s-1.742-0.781-1.742-1.744
				C403.916,771.238,404.697,770.457,405.658,770.457z M397.417,770.387c1.557,0,2.817,1.262,2.817,2.818
				c0,1.555-1.26,2.814-2.817,2.814c-1.555,0-2.816-1.26-2.816-2.814C394.601,771.648,395.862,770.387,397.417,770.387z"/>
		</g>
	</g>
	<path display="inline" fill="#E9ECED" d="M202.985,120.427c0.96-1.938,1.515-4.114,1.515-6.423c0-8.008-6.492-14.5-14.5-14.5
		c-0.012,0-0.023,0.002-0.035,0.002C187.402,86.397,175.859,76.504,162,76.504c-3.568,0-6.981,0.662-10.129,1.859
		C146.088,66.602,133.992,58.504,120,58.504c-16.064,0-29.63,10.674-34.009,25.314c-4.048-1.495-8.423-2.314-12.991-2.314
		c-20.71,0-37.5,16.79-37.5,37.5c0,0.478,0.018,0.95,0.036,1.423H202.985z"/>
	<path display="inline" fill="#E9ECED" d="M708.985,716.428c0.96-1.938,1.515-4.114,1.515-6.424c0-8.008-6.492-14.5-14.5-14.5
		c-0.012,0-0.023,0.002-0.035,0.002c-2.562-13.108-14.105-23.002-27.965-23.002c-3.568,0-6.98,0.662-10.129,1.859
		c-5.783-11.762-17.879-19.859-31.871-19.859c-16.064,0-29.63,10.674-34.01,25.314c-4.047-1.496-8.423-2.314-12.99-2.314
		c-20.711,0-37.5,16.789-37.5,37.5c0,0.478,0.018,0.95,0.036,1.424H708.985z"/>
	<path display="inline" fill="#E9ECED" d="M745.998,165.548c-0.042-22.608-18.38-40.923-40.998-40.923
		c-1.914,0-3.794,0.142-5.638,0.396c-10.27-12.553-25.879-20.569-43.362-20.569c-22.44,0-41.788,13.205-50.723,32.264
		c-0.753-0.053-1.511-0.09-2.277-0.09c-11.569,0-21.704,6.141-27.324,15.34c-1.63-0.539-3.366-0.84-5.176-0.84
		c-8.407,0-15.332,6.293-16.355,14.423H745.998z"/>
	<path display="inline" fill="#E9ECED" d="M260.996,702.229c-0.042-22.372-18.188-40.496-40.57-40.496
		c-1.894,0-3.754,0.14-5.579,0.392c-10.163-12.423-25.609-20.354-42.91-20.354c-22.206,0-41.352,13.067-50.193,31.927
		c-0.745-0.053-1.495-0.089-2.253-0.089c-11.449,0-21.478,6.076-27.039,15.18c-1.613-0.533-3.331-0.831-5.122-0.831
		c-8.319,0-15.172,6.227-16.185,14.272H260.996z"/>
	<path display="inline" fill="#E9ECED" d="M553.878,352.923h134.255c-2.262-3.557-6.229-5.923-10.756-5.923
		c-2.152,0-4.178,0.539-5.956,1.48c-2.679-11.173-12.728-19.48-24.722-19.48c-1.071,0-2.125,0.074-3.162,0.203
		C636.779,321.134,626.634,316,615.285,316c-4.918,0-9.606,0.971-13.896,2.72c-3.24-4.662-8.627-7.72-14.734-7.72
		c-9.907,0-17.938,8.032-17.938,17.939c0,0.797,0.07,1.577,0.171,2.347C560.498,335.091,554.522,343.275,553.878,352.923z"/>
</g>
<g id="Objects">
	<g>
		<path fill="#E9ECED" d="M800,463.071l-186.186,2.112l-38.397-90.647l-80.497,11.567l-54.099,234.491
			c0,0,23.808,18.928,57.834,18.928c34.027,0,94.893-13.303,94.893-13.303L800,634.47V463.071z"/>
		<polygon fill="#BAC0C4" points="500.932,416.281 528.567,433.26 490.256,581.507 		"/>
		<path fill="#333333" d="M491.272,602.931C490.52,617.985,478.093,630,463.02,630H298.577c-15.047,0-27.46-11.973-28.249-26.999
			L249.653,209h261.306L491.272,602.931z"/>
		<rect x="232" y="179" fill="#E9ECED" width="297" height="30"/>
		<path fill="#E9ECED" d="M504,179H257v-26.862C257,139.071,267.344,128,280.411,128h199.791C493.269,128,504,139.071,504,152.138
			V179z"/>
		<rect x="257" y="166" fill="#BAC0C4" width="247" height="13"/>
		<path fill="#E9ECED" d="M274,366.764c0,10.072-8.165,18.236-18.236,18.236h-17.527C228.165,385,220,376.835,220,366.764v-26.527
			c0-10.072,8.165-18.236,18.236-18.236h17.527c10.072,0,18.236,8.165,18.236,18.236V366.764z"/>
		<path fill="#E9ECED" d="M274,444.764c0,10.071-8.165,18.236-18.236,18.236h-17.527C228.165,463,220,454.835,220,444.764v-26.527
			c0-10.071,8.165-18.236,18.236-18.236h17.527c10.072,0,18.236,8.165,18.236,18.236V444.764z"/>
		<path fill="#E9ECED" d="M272,514.764c0,10.071-8.165,18.236-18.236,18.236h-9.527C234.165,533,226,524.835,226,514.764v-18.527
			c0-10.071,8.165-18.236,18.236-18.236h9.527c10.072,0,18.236,8.165,18.236,18.236V514.764z"/>
		<path fill="#E9ECED" d="M282,577.462c0,9.686-7.852,17.538-17.538,17.538h-8.924c-9.686,0-17.538-7.853-17.538-17.538v-17.924
			c0-9.686,7.852-17.538,17.538-17.538h8.924c9.686,0,17.538,7.853,17.538,17.538V577.462z"/>
		<path fill="#E9ECED" d="M504.965,418.7l-45.625-27.258c-4.433-2.66-7.34-7.452-7.34-12.622v-32.5
			c0-5.19,2.791-10.037,7.112-12.912c4.321-2.875,9.892-3.398,14.679-1.393l101.577,42.521L504.965,418.7z"/>
		<polygon fill="#141414" points="509.959,229 250.495,229 249.443,209 511.273,209 		"/>
		<g>
			<g>
				
					<text transform="matrix(1 -0.1642 0 1 296.9873 352.9316)" fill="#736357" font-family="'BreeSerif-Regular'" font-size="46.2447">COFFEE?</text>
			</g>
			<text transform="matrix(1 0 0 1 283.1978 403.543)" fill="#4C4C4C" font-family="'Cookie-Regular'" font-size="65.8763">Push me</text>
			<text transform="matrix(1 0 0 1 343.9434 454.501)" fill="#4C4C4C" font-family="'BebasNeueBold'" font-size="43.0481">FOR A</text>
			<g>
				<g>
					<path fill="#4C4C4C" d="M302.906,467.534c4.75,1.137,9.52,2.167,14.305,3.09c7.311,1.397,10.555,4.735,9.684,10.388
						c-0.488,3.104-2.483,5.222-6.044,6.273c2.015,0.868,3.517,2.062,4.51,3.603c0.992,1.541,1.334,3.39,1.004,5.55
						c-0.498,3.275-2.087,5.598-4.812,6.919c-2.722,1.321-6.457,1.573-11.137,0.667c-5.258-1.02-10.499-2.156-15.719-3.409
						c0.323-1.346,0.646-2.691,0.969-4.037c0.618,0.096,1.236,0.19,1.854,0.282c1.089,0.15,1.73-0.194,1.921-1.027
						c1.779-7.742,3.558-15.483,5.337-23.226c-0.963-0.274-1.925-0.553-2.886-0.835C302.23,470.358,302.568,468.946,302.906,467.534
						z M311.007,474.185c-0.635,3.026-1.27,6.052-1.905,9.078c1.306,0.274,2.612,0.54,3.92,0.799
						c2.192,0.433,3.894,0.305,5.091-0.361c1.197-0.667,1.929-1.778,2.204-3.325c0.275-1.548-0.044-2.731-0.946-3.556
						c-0.903-0.826-2.298-1.415-4.189-1.787C313.789,474.759,312.397,474.476,311.007,474.185z M308.166,487.728
						c-0.733,3.494-1.466,6.989-2.199,10.483c1.731,0.363,3.465,0.714,5.201,1.051c4.809,0.93,7.529-0.462,8.139-4.026
						c0.292-1.683-0.077-3.072-1.088-4.173c-1.013-1.101-2.588-1.848-4.738-2.264C311.707,488.456,309.935,488.099,308.166,487.728z
						"/>
					<path fill="#4C4C4C" d="M328.382,507.046c0.195-1.37,0.391-2.74,0.586-4.11c0.622,0.037,1.243,0.072,1.864,0.106
						c1.094,0.047,1.697-0.357,1.809-1.204c1.046-7.875,2.091-15.749,3.137-23.624c-0.98-0.182-1.96-0.368-2.939-0.56
						c0.204-1.438,0.408-2.875,0.612-4.312c4.661,0.661,9.333,1.223,14.012,1.684c3.976,0.391,6.965,1.356,9.006,2.974
						c2.038,1.616,2.979,4.082,2.776,7.425c-0.141,2.318-0.887,4.191-2.262,5.607s-2.983,2.397-4.812,2.937
						c1.269,0.547,2.226,1.662,2.878,3.353c1.127,2.769,2.286,5.531,3.474,8.289c1.065,0.098,2.13,0.19,3.196,0.279
						c-0.073,1.45-0.147,2.9-0.22,4.351c-4.682-0.237-9.361-0.564-14.033-0.981c0.123-1.379,0.246-2.757,0.369-4.135
						c0.547-0.003,1.094-0.007,1.641-0.012c0.869-0.029,1.323-0.302,1.365-0.812c0.017-0.204-0.04-0.448-0.166-0.733
						c-0.735-1.774-1.458-3.551-2.169-5.329c-0.328-0.887-0.72-1.532-1.18-1.935s-1.144-0.647-2.054-0.738
						c-1.657-0.164-3.313-0.34-4.968-0.527c-0.335,2.953-0.67,5.907-1.005,8.861c1.207,0.188,2.414,0.37,3.622,0.546
						c-0.149,1.444-0.298,2.89-0.447,4.334C337.77,508.292,333.071,507.715,328.382,507.046z M340.854,490.198
						c1.561,0.177,3.122,0.343,4.684,0.499c4.426,0.437,6.79-1.279,7.083-5.022c0.171-2.146-0.288-3.587-1.367-4.33
						c-1.081-0.744-2.869-1.227-5.373-1.481c-1.27-0.129-2.539-0.266-3.807-0.41C341.667,483.035,341.26,486.616,340.854,490.198z"
						/>
					<path fill="#4C4C4C" d="M391.034,510.538c-9.009,0.273-18.026,0.213-27.032-0.181c0.06-1.383,0.121-2.766,0.181-4.147
						c0.621-0.024,1.241-0.05,1.861-0.077c1.091-0.061,1.651-0.521,1.679-1.375c0.271-7.939,0.541-15.879,0.812-23.817
						c-0.992-0.086-1.982-0.175-2.973-0.27c0.062-1.45,0.125-2.901,0.187-4.353c7.874,0.339,15.756,0.396,23.633,0.172
						c0.081,2.835,0.161,5.669,0.242,8.504c-1.796,0.171-3.594,0.327-5.394,0.47c-0.009-0.684-0.017-1.367-0.026-2.05
						c-0.007-0.58-0.101-0.989-0.278-1.227c-0.179-0.237-0.599-0.353-1.262-0.347c-2.586,0.021-5.173,0.012-7.759-0.027
						c-0.044,2.921-0.088,5.842-0.132,8.763c4.142,0.062,8.284,0.05,12.425-0.037c0.037,1.743,0.073,3.485,0.109,5.228
						c-4.204,0.088-8.409,0.101-12.613,0.037c-0.048,3.194-0.096,6.389-0.144,9.582c3.011,0.046,6.021,0.053,9.032,0.022
						c0.673-0.007,1.101-0.141,1.285-0.398c0.183-0.26,0.27-0.679,0.261-1.26c-0.012-0.854-0.024-1.708-0.037-2.562
						c1.887,0.093,3.775,0.17,5.666,0.231C390.85,504.459,390.942,507.499,391.034,510.538z"/>
					<path fill="#4C4C4C" d="M396.907,504.566c2.629-8.094,5.058-16.216,7.284-24.359c-1.104-0.022-2.206-0.051-3.309-0.085
						c-0.086-1.381-0.173-2.762-0.259-4.144c3.934-0.245,7.864-0.562,11.789-0.948c4.463,9.466,9.233,18.845,14.31,28.123
						c0.019-0.003,0.037-0.005,0.057-0.008c1.067-0.088,2.135-0.181,3.203-0.278c0.201,1.438,0.402,2.876,0.604,4.314
						c-4.859,0.68-9.729,1.262-14.606,1.744c-0.137-1.377-0.272-2.754-0.409-4.131c0.705-0.121,1.409-0.244,2.113-0.37
						c0.628-0.135,1.043-0.317,1.244-0.545c0.202-0.229,0.179-0.604-0.065-1.128c-0.505-1.01-1.007-2.021-1.505-3.034
						c-4.312,0.455-8.631,0.831-12.953,1.129c-0.451,1.538-0.91,3.075-1.375,4.611c1.126-0.021,2.253-0.047,3.379-0.078
						c0.106,1.448,0.213,2.896,0.319,4.345c-4.374,0.321-8.752,0.563-13.133,0.727c-0.051-1.383-0.103-2.766-0.155-4.148
						c0.617-0.074,1.233-0.149,1.85-0.227C396.073,505.974,396.614,505.47,396.907,504.566z M409.207,481.093
						c-1.2,4.992-2.472,9.978-3.814,14.957c3.39-0.246,6.776-0.541,10.16-0.885c-2.13-4.678-4.192-9.373-6.188-14.086
						C409.312,481.084,409.26,481.088,409.207,481.093z"/>
					<path fill="#4C4C4C" d="M435.252,500.431c-1.209-7.765-2.419-15.53-3.628-23.295c-0.993,0.103-1.985,0.201-2.979,0.295
						c-0.211-1.438-0.422-2.874-0.632-4.311c4.096-0.601,8.183-1.278,12.259-2.033c0.252,1.36,0.504,2.721,0.756,4.081
						c-0.558,0.156-1.116,0.311-1.676,0.463c-0.98,0.28-1.387,0.906-1.216,1.882c0.648,3.702,1.298,7.403,1.946,11.105
						c2.919-4.812,5.697-9.66,8.335-14.537c-0.972,0.149-1.943,0.295-2.915,0.437c-0.284-1.424-0.567-2.849-0.852-4.272
						c3.967-0.79,7.923-1.653,11.866-2.591c0.319,1.347,0.64,2.693,0.959,4.039c-0.551,0.184-1.103,0.366-1.654,0.548
						c-0.635,0.217-1.209,0.84-1.736,1.868c-1.785,3.45-3.639,6.887-5.562,10.309c4.117,4.239,8.363,8.407,12.736,12.499
						c0.985-0.176,1.971-0.355,2.955-0.539c0.339,1.412,0.678,2.824,1.017,4.236c-4.756,1.142-9.528,2.187-14.316,3.135
						c-0.269-1.357-0.537-2.715-0.806-4.072c0.562-0.164,1.126-0.329,1.688-0.495c0.726-0.218,1.04-0.562,0.942-1.03
						c-0.041-0.201-0.188-0.449-0.441-0.747c-2.407-2.487-4.772-4.998-7.095-7.531c-1.244,2.079-2.515,4.151-3.812,6.217
						c0.274,1.565,0.548,3.13,0.822,4.695c1.065-0.135,2.13-0.274,3.194-0.419c0.264,1.428,0.527,2.856,0.79,4.284
						c-4.496,0.829-9.005,1.573-13.522,2.232c-0.2-1.369-0.399-2.738-0.6-4.108c0.606-0.14,1.213-0.281,1.819-0.425
						c0.548-0.152,0.935-0.358,1.16-0.618S435.347,501.038,435.252,500.431z"/>
				</g>
			</g>
			<text transform="matrix(1 0 0 1 323.54 289.1558)" fill="#4C4C4C" font-family="'BreeSerif-Regular'" font-size="37.8551">Need</text>
		</g>
		<g>
			<g>
				
					<text transform="matrix(1 -0.1642 0 1 294.9873 350.9316)" fill="#C7B299" font-family="'BreeSerif-Regular'" font-size="46.2447">COFFEE?</text>
			</g>
			<text transform="matrix(1 0 0 1 282 401.4971)" fill="#8C8C8C" font-family="'Cookie-Regular'" font-size="65.8763">Push me</text>
			<text transform="matrix(1 0 0 1 341.9434 452.501)" fill="#8C8C8C" font-family="'BebasNeueBold'" font-size="43.0481">FOR A</text>
			<g>
				<g>
					<path fill="#8C8C8C" d="M300.906,465.534c4.75,1.137,9.52,2.167,14.305,3.09c7.311,1.396,10.555,4.735,9.684,10.388
						c-0.489,3.104-2.483,5.221-6.044,6.273c2.015,0.868,3.517,2.062,4.51,3.603c0.992,1.541,1.334,3.39,1.004,5.55
						c-0.498,3.275-2.087,5.598-4.812,6.919c-2.722,1.321-6.457,1.573-11.137,0.667c-5.258-1.02-10.499-2.156-15.719-3.409
						c0.323-1.346,0.646-2.691,0.969-4.037c0.618,0.096,1.236,0.19,1.854,0.282c1.09,0.15,1.73-0.194,1.921-1.027
						c1.779-7.742,3.558-15.483,5.337-23.226c-0.963-0.274-1.925-0.553-2.886-0.835C300.23,468.358,300.568,466.946,300.906,465.534
						z M309.007,472.185c-0.635,3.026-1.27,6.052-1.905,9.078c1.306,0.274,2.612,0.54,3.92,0.799
						c2.192,0.433,3.894,0.305,5.091-0.361c1.198-0.667,1.929-1.777,2.204-3.325s-0.044-2.731-0.946-3.556
						c-0.904-0.826-2.298-1.415-4.189-1.787C311.789,472.759,310.397,472.476,309.007,472.185z M306.166,485.728
						c-0.733,3.494-1.466,6.989-2.199,10.483c1.731,0.363,3.465,0.714,5.201,1.051c4.809,0.93,7.529-0.462,8.139-4.026
						c0.292-1.683-0.077-3.072-1.088-4.173c-1.013-1.101-2.588-1.848-4.738-2.264C309.707,486.456,307.935,486.099,306.166,485.728z
						"/>
					<path fill="#8C8C8C" d="M326.382,505.046c0.195-1.37,0.391-2.74,0.586-4.11c0.622,0.037,1.243,0.072,1.864,0.106
						c1.094,0.047,1.697-0.357,1.809-1.204c1.046-7.875,2.091-15.749,3.137-23.624c-0.98-0.182-1.96-0.368-2.939-0.56
						c0.204-1.438,0.408-2.875,0.612-4.312c4.661,0.661,9.333,1.223,14.012,1.684c3.976,0.391,6.965,1.356,9.006,2.974
						c2.038,1.616,2.978,4.081,2.776,7.425c-0.141,2.318-0.887,4.191-2.262,5.607s-2.982,2.397-4.812,2.937
						c1.269,0.547,2.225,1.661,2.878,3.353c1.127,2.769,2.286,5.531,3.474,8.289c1.065,0.098,2.13,0.19,3.196,0.279
						c-0.073,1.45-0.147,2.9-0.22,4.351c-4.682-0.237-9.361-0.564-14.033-0.981c0.123-1.379,0.246-2.757,0.369-4.135
						c0.547-0.003,1.094-0.007,1.641-0.012c0.869-0.029,1.324-0.302,1.365-0.812c0.017-0.204-0.04-0.448-0.166-0.733
						c-0.735-1.774-1.458-3.551-2.169-5.329c-0.329-0.887-0.72-1.532-1.18-1.935c-0.459-0.403-1.144-0.647-2.054-0.738
						c-1.657-0.164-3.313-0.34-4.968-0.527c-0.335,2.953-0.67,5.907-1.005,8.861c1.207,0.188,2.414,0.37,3.622,0.546
						c-0.149,1.444-0.298,2.89-0.447,4.334C335.77,506.292,331.071,505.715,326.382,505.046z M338.854,488.198
						c1.561,0.177,3.122,0.343,4.684,0.499c4.426,0.437,6.79-1.279,7.083-5.022c0.171-2.146-0.288-3.587-1.367-4.33
						c-1.08-0.744-2.869-1.227-5.373-1.481c-1.27-0.129-2.539-0.266-3.807-0.41C339.667,481.035,339.26,484.616,338.854,488.198z"/>
					<path fill="#8C8C8C" d="M389.034,508.538c-9.009,0.273-18.026,0.213-27.032-0.181c0.06-1.383,0.121-2.766,0.181-4.147
						c0.621-0.024,1.241-0.05,1.861-0.077c1.091-0.061,1.651-0.521,1.679-1.375c0.271-7.939,0.541-15.879,0.812-23.817
						c-0.992-0.086-1.982-0.175-2.973-0.27c0.062-1.45,0.125-2.901,0.187-4.353c7.874,0.339,15.756,0.396,23.633,0.172
						c0.081,2.835,0.161,5.669,0.242,8.504c-1.796,0.171-3.594,0.327-5.394,0.47c-0.009-0.684-0.017-1.367-0.026-2.05
						c-0.007-0.58-0.101-0.989-0.278-1.227c-0.178-0.237-0.599-0.353-1.262-0.347c-2.586,0.021-5.173,0.012-7.759-0.027
						c-0.044,2.921-0.088,5.842-0.132,8.763c4.142,0.062,8.284,0.05,12.425-0.037c0.037,1.743,0.073,3.485,0.109,5.228
						c-4.204,0.088-8.409,0.101-12.613,0.037c-0.048,3.194-0.096,6.389-0.144,9.582c3.011,0.046,6.021,0.053,9.032,0.022
						c0.673-0.007,1.101-0.141,1.285-0.398c0.183-0.26,0.27-0.679,0.261-1.26c-0.012-0.854-0.024-1.708-0.037-2.562
						c1.887,0.093,3.775,0.17,5.666,0.231C388.85,502.459,388.942,505.499,389.034,508.538z"/>
					<path fill="#8C8C8C" d="M394.907,502.566c2.629-8.094,5.057-16.216,7.284-24.359c-1.104-0.022-2.207-0.051-3.309-0.085
						c-0.086-1.381-0.173-2.762-0.259-4.144c3.934-0.245,7.864-0.562,11.789-0.948c4.463,9.466,9.233,18.845,14.31,28.123
						c0.019-0.003,0.037-0.005,0.057-0.008c1.067-0.088,2.135-0.181,3.203-0.278c0.201,1.438,0.402,2.876,0.604,4.314
						c-4.859,0.68-9.729,1.262-14.606,1.744c-0.137-1.377-0.272-2.754-0.409-4.131c0.705-0.121,1.409-0.244,2.113-0.37
						c0.628-0.135,1.043-0.317,1.244-0.545c0.202-0.229,0.179-0.604-0.065-1.128c-0.505-1.01-1.007-2.021-1.505-3.034
						c-4.312,0.455-8.631,0.831-12.953,1.129c-0.451,1.538-0.909,3.075-1.375,4.611c1.127-0.021,2.253-0.047,3.379-0.078
						c0.106,1.448,0.213,2.896,0.319,4.345c-4.374,0.321-8.752,0.563-13.133,0.727c-0.051-1.383-0.103-2.766-0.155-4.148
						c0.617-0.074,1.233-0.149,1.85-0.227C394.073,503.975,394.614,503.47,394.907,502.566z M407.207,479.093
						c-1.2,4.992-2.472,9.978-3.814,14.957c3.39-0.246,6.776-0.541,10.16-0.885c-2.13-4.678-4.192-9.373-6.188-14.086
						C407.312,479.084,407.26,479.088,407.207,479.093z"/>
					<path fill="#8C8C8C" d="M433.252,498.431c-1.209-7.765-2.419-15.53-3.628-23.295c-0.993,0.103-1.985,0.201-2.979,0.295
						c-0.211-1.438-0.422-2.874-0.632-4.311c4.096-0.601,8.183-1.278,12.259-2.033c0.252,1.36,0.504,2.721,0.756,4.081
						c-0.558,0.156-1.116,0.311-1.676,0.463c-0.98,0.28-1.386,0.906-1.216,1.882c0.648,3.702,1.298,7.403,1.946,11.105
						c2.919-4.812,5.697-9.66,8.335-14.537c-0.972,0.149-1.943,0.295-2.915,0.437c-0.284-1.424-0.567-2.849-0.852-4.272
						c3.967-0.79,7.923-1.653,11.866-2.591c0.319,1.347,0.64,2.693,0.959,4.039c-0.551,0.184-1.103,0.366-1.654,0.548
						c-0.635,0.217-1.209,0.84-1.736,1.868c-1.785,3.45-3.639,6.887-5.562,10.309c4.117,4.239,8.363,8.407,12.736,12.499
						c0.985-0.176,1.971-0.355,2.955-0.539c0.339,1.412,0.678,2.824,1.017,4.236c-4.756,1.142-9.528,2.187-14.316,3.135
						c-0.269-1.357-0.537-2.715-0.806-4.072c0.562-0.164,1.126-0.329,1.688-0.495c0.726-0.218,1.04-0.562,0.942-1.03
						c-0.041-0.201-0.188-0.45-0.441-0.747c-2.407-2.487-4.772-4.998-7.095-7.531c-1.244,2.079-2.515,4.151-3.812,6.217
						c0.274,1.565,0.548,3.13,0.822,4.695c1.065-0.135,2.13-0.274,3.194-0.419c0.264,1.428,0.527,2.856,0.79,4.284
						c-4.496,0.829-9.005,1.573-13.522,2.232c-0.2-1.369-0.399-2.738-0.6-4.108c0.606-0.14,1.213-0.281,1.819-0.425
						c0.548-0.152,0.935-0.358,1.16-0.618S433.347,499.038,433.252,498.431z"/>
				</g>
			</g>
			<text transform="matrix(1 0 0 1 321.54 287.1558)" fill="#8C8C8C" font-family="'BreeSerif-Regular'" font-size="37.8551">Need</text>
		</g>
		<g>
			
				<text transform="matrix(1 -0.1642 0 1 292.9873 348.9316)" fill="#FCFC95" font-family="'BreeSerif-Regular'" font-size="46.2447">COFFEE?</text>
			<text transform="matrix(1 0 0 1 280.8022 400)" fill="#EEEEEE" font-family="'Cookie-Regular'" font-size="65.8763">Push me</text>
			<text transform="matrix(1 0 0 1 339.9434 450.501)" fill="#E9ECED" font-family="'BebasNeueBold'" font-size="43.0481">For A</text>
			<g>
				<g>
					<path fill="#EEEEEE" d="M298.906,463.534c4.75,1.137,9.52,2.167,14.305,3.09c7.311,1.396,10.555,4.735,9.684,10.388
						c-0.488,3.104-2.483,5.221-6.044,6.273c2.015,0.868,3.517,2.062,4.51,3.603c0.992,1.541,1.334,3.39,1.004,5.55
						c-0.498,3.275-2.087,5.597-4.812,6.919c-2.722,1.321-6.457,1.573-11.137,0.667c-5.258-1.02-10.499-2.156-15.719-3.409
						c0.323-1.346,0.646-2.691,0.969-4.037c0.618,0.096,1.236,0.19,1.854,0.282c1.089,0.15,1.73-0.194,1.921-1.027
						c1.779-7.742,3.558-15.483,5.337-23.226c-0.963-0.274-1.925-0.553-2.886-0.835C298.23,466.358,298.568,464.946,298.906,463.534
						z M307.007,470.185c-0.635,3.026-1.27,6.052-1.905,9.078c1.306,0.274,2.612,0.54,3.92,0.799
						c2.192,0.433,3.894,0.306,5.091-0.361s1.929-1.777,2.204-3.325c0.275-1.548-0.044-2.73-0.946-3.556
						c-0.903-0.825-2.298-1.415-4.189-1.787C309.789,470.759,308.397,470.476,307.007,470.185z M304.166,483.728
						c-0.733,3.494-1.466,6.989-2.199,10.483c1.731,0.363,3.465,0.714,5.201,1.051c4.809,0.93,7.529-0.461,8.139-4.026
						c0.291-1.683-0.076-3.072-1.088-4.173c-1.013-1.101-2.588-1.848-4.738-2.264C307.707,484.456,305.935,484.099,304.166,483.728z
						"/>
					<path fill="#EEEEEE" d="M324.382,503.046c0.195-1.37,0.391-2.74,0.586-4.11c0.622,0.037,1.243,0.072,1.864,0.106
						c1.094,0.047,1.697-0.357,1.809-1.204c1.046-7.875,2.091-15.749,3.137-23.624c-0.98-0.182-1.96-0.368-2.939-0.56
						c0.204-1.438,0.408-2.875,0.612-4.312c4.661,0.661,9.333,1.223,14.012,1.684c3.976,0.391,6.965,1.356,9.006,2.974
						c2.038,1.616,2.979,4.081,2.776,7.425c-0.141,2.318-0.887,4.191-2.262,5.607c-1.375,1.416-2.983,2.397-4.812,2.937
						c1.269,0.547,2.226,1.661,2.878,3.353c1.127,2.769,2.286,5.531,3.474,8.289c1.065,0.098,2.13,0.19,3.196,0.278
						c-0.073,1.451-0.147,2.901-0.22,4.352c-4.682-0.237-9.361-0.564-14.033-0.981c0.123-1.379,0.246-2.757,0.369-4.135
						c0.547-0.003,1.094-0.007,1.641-0.012c0.869-0.029,1.323-0.301,1.365-0.812c0.017-0.204-0.039-0.448-0.166-0.733
						c-0.735-1.774-1.458-3.551-2.169-5.329c-0.329-0.887-0.72-1.532-1.18-1.935c-0.459-0.403-1.144-0.647-2.054-0.738
						c-1.657-0.164-3.313-0.34-4.968-0.527c-0.335,2.953-0.67,5.907-1.005,8.861c1.207,0.188,2.414,0.37,3.622,0.546
						c-0.149,1.444-0.298,2.889-0.447,4.334C333.77,504.292,329.071,503.715,324.382,503.046z M336.854,486.198
						c1.561,0.177,3.122,0.343,4.684,0.499c4.426,0.437,6.79-1.279,7.083-5.022c0.171-2.146-0.288-3.587-1.367-4.33
						c-1.081-0.744-2.869-1.227-5.373-1.481c-1.27-0.129-2.539-0.266-3.807-0.41C337.667,479.035,337.26,482.616,336.854,486.198z"
						/>
					<path fill="#EEEEEE" d="M387.034,506.538c-9.009,0.273-18.026,0.213-27.032-0.181c0.06-1.383,0.121-2.766,0.181-4.147
						c0.621-0.024,1.241-0.05,1.861-0.077c1.091-0.061,1.651-0.521,1.679-1.375c0.271-7.939,0.541-15.879,0.812-23.817
						c-0.992-0.086-1.982-0.175-2.973-0.27c0.062-1.45,0.125-2.901,0.187-4.353c7.874,0.339,15.756,0.396,23.633,0.172
						c0.081,2.835,0.161,5.669,0.242,8.504c-1.796,0.171-3.594,0.327-5.394,0.47c-0.009-0.684-0.017-1.367-0.026-2.05
						c-0.007-0.58-0.101-0.989-0.278-1.227c-0.178-0.237-0.599-0.352-1.262-0.347c-2.586,0.021-5.173,0.012-7.759-0.027
						c-0.044,2.921-0.088,5.842-0.132,8.763c4.142,0.062,8.284,0.05,12.425-0.037c0.037,1.743,0.073,3.485,0.109,5.228
						c-4.204,0.088-8.409,0.101-12.613,0.037c-0.048,3.194-0.096,6.389-0.144,9.582c3.011,0.046,6.021,0.053,9.032,0.022
						c0.673-0.007,1.101-0.141,1.285-0.398c0.183-0.26,0.27-0.679,0.261-1.26c-0.012-0.854-0.024-1.708-0.037-2.562
						c1.887,0.093,3.775,0.17,5.666,0.231C386.85,500.459,386.942,503.499,387.034,506.538z"/>
					<path fill="#EEEEEE" d="M392.907,500.566c2.629-8.094,5.057-16.216,7.284-24.359c-1.104-0.022-2.207-0.051-3.309-0.085
						c-0.086-1.381-0.173-2.762-0.259-4.144c3.934-0.245,7.864-0.562,11.789-0.948c4.463,9.466,9.233,18.845,14.31,28.123
						c0.019-0.003,0.037-0.005,0.057-0.008c1.067-0.088,2.135-0.181,3.203-0.278c0.201,1.438,0.402,2.876,0.604,4.314
						c-4.859,0.68-9.729,1.262-14.606,1.744c-0.137-1.377-0.272-2.754-0.409-4.131c0.705-0.121,1.409-0.244,2.113-0.37
						c0.629-0.134,1.042-0.316,1.244-0.545c0.201-0.229,0.179-0.604-0.065-1.128c-0.505-1.01-1.007-2.021-1.505-3.034
						c-4.312,0.455-8.631,0.831-12.954,1.129c-0.451,1.538-0.909,3.075-1.374,4.611c1.126-0.021,2.252-0.047,3.378-0.078
						c0.106,1.448,0.213,2.896,0.319,4.345c-4.374,0.321-8.752,0.563-13.133,0.727c-0.051-1.383-0.103-2.766-0.155-4.148
						c0.617-0.074,1.233-0.149,1.85-0.227C392.073,501.975,392.614,501.47,392.907,500.566z M405.207,477.093
						c-1.2,4.992-2.472,9.978-3.814,14.957c3.39-0.246,6.777-0.541,10.16-0.885c-2.13-4.678-4.192-9.373-6.188-14.086
						C405.312,477.084,405.26,477.088,405.207,477.093z"/>
					<path fill="#EEEEEE" d="M431.252,496.431c-1.209-7.765-2.419-15.53-3.628-23.295c-0.993,0.103-1.985,0.201-2.979,0.295
						c-0.211-1.438-0.422-2.874-0.632-4.311c4.096-0.601,8.183-1.278,12.259-2.033c0.252,1.36,0.504,2.721,0.756,4.081
						c-0.558,0.156-1.116,0.311-1.676,0.463c-0.98,0.281-1.386,0.906-1.216,1.882c0.648,3.702,1.298,7.403,1.946,11.105
						c2.919-4.812,5.697-9.66,8.335-14.537c-0.972,0.149-1.943,0.295-2.915,0.437c-0.284-1.424-0.567-2.849-0.852-4.272
						c3.967-0.79,7.923-1.653,11.866-2.591c0.319,1.347,0.64,2.693,0.959,4.039c-0.551,0.184-1.103,0.366-1.654,0.548
						c-0.635,0.217-1.21,0.84-1.736,1.868c-1.785,3.45-3.639,6.887-5.562,10.309c4.117,4.239,8.363,8.407,12.736,12.499
						c0.985-0.176,1.971-0.355,2.955-0.539c0.339,1.412,0.678,2.824,1.017,4.236c-4.756,1.142-9.528,2.187-14.316,3.135
						c-0.269-1.357-0.537-2.715-0.806-4.072c0.562-0.164,1.126-0.329,1.688-0.495c0.726-0.218,1.04-0.562,0.942-1.03
						c-0.041-0.201-0.188-0.45-0.441-0.747c-2.407-2.487-4.772-4.998-7.095-7.531c-1.244,2.079-2.515,4.151-3.812,6.217
						c0.274,1.565,0.548,3.13,0.822,4.695c1.065-0.135,2.13-0.274,3.194-0.419c0.264,1.428,0.527,2.856,0.79,4.284
						c-4.496,0.829-9.005,1.573-13.522,2.232c-0.2-1.369-0.399-2.738-0.6-4.108c0.606-0.14,1.213-0.281,1.819-0.425
						c0.548-0.151,0.935-0.358,1.16-0.618S431.347,497.038,431.252,496.431z"/>
				</g>
			</g>
			<text transform="matrix(1 0 0 1 319.54 285.1558)" fill="#E9ECED" font-family="'BreeSerif-Regular'" font-size="37.8551">Need</text>
		</g>
		<polygon fill="#E9ECED" points="800,463.311 929,463 929,640 800,634.47 791,463 		"/>
	</g>
	<g>
		<g>
			<defs>
				<rect id="SVGID_1_" x="355.962" y="533.933" width="44.076" height="69.137"/>
			</defs>
			<clipPath id="SVGID_2_">
				<use xlink:href="#SVGID_1_"  overflow="visible"/>
			</clipPath>
			<path clip-path="url(#SVGID_2_)" fill="none" stroke="#ECF0F1" stroke-width="2" stroke-miterlimit="10" d="M374.92,570.604
				v-23.921c0-2.64-1.316-4.394-4.738-4.394c-3.421,0-4.737,1.754-4.737,4.394v35.438"/>
			<path clip-path="url(#SVGID_2_)" fill="none" stroke="#FFFFFF" stroke-width="2" stroke-miterlimit="10" d="M392.146,574.442
				v-8.6c0-3.639-0.852-5.972-4.075-6.277c-2.729-0.259-4.077,0.828-4.077,0.828 M392.146,564.417
				c4.766-0.799,6.268,1.812,6.53,5.988c0.265,4.177,0.361,6.447,0.361,11.716c0,12.71-6.979,20.007-6.979,20.007"/>
			<path clip-path="url(#SVGID_2_)" fill="none" stroke="#ECF0F1" stroke-width="2" stroke-miterlimit="10" d="M365.041,567.298
				c-0.504-0.153-1.955-0.294-3.005-0.294c-2.375,0-4.16,1.878-4.521,5.237c0,0-0.473,3.485-0.547,8.056
				c-0.098,5.932,0.96,8.57,3.319,11.979c3.24,4.68,9.965,10.011,9.965,10.011 M384.395,571.492v-7.973
				c0-3.638-0.984-6.904-4.73-6.904c-3.182,0-4.732,0.829-4.732,0.829"/>
			<path clip-path="url(#SVGID_2_)" fill="none" stroke="#D6BF28" stroke-width="2" stroke-miterlimit="10" d="M359.252,545.863
				c0-6.037,4.894-10.931,10.93-10.931c6.037,0,10.931,4.894,10.931,10.931"/>
		</g>
	</g>
</g>
</svg>
